<svg width="32" height="29" viewBox="0 0 32 29" fill="none" xmlns="http://www.w3.org/2000/svg">
<g clip-path="url(#clip0_322_308)">
<path d="M30.117 25.56C30.117 26.8831 28.9512 27.9656 27.5263 27.9656H3.56238C2.13749 27.9656 0.97168 26.8831 0.97168 25.56V3.30775C0.97168 1.98464 2.13749 0.9021 3.56238 0.9021H27.5263C28.9512 0.9021 30.117 1.98464 30.117 3.30775V25.56Z" stroke="#1E1E1E" stroke-width="1.5" stroke-miterlimit="10" stroke-linecap="round" stroke-linejoin="round"/>
<path d="M9.65069 22.1921C9.65069 22.9138 9.13255 23.3949 8.35535 23.3949H7.06C6.28279 23.3949 5.76465 22.9138 5.76465 22.1921V18.8242C5.76465 18.1025 6.28279 17.6213 7.06 17.6213H8.35535C9.13255 17.6213 9.65069 18.1025 9.65069 18.8242V22.1921Z" stroke="#1E1E1E" stroke-width="1.5" stroke-miterlimit="10" stroke-linecap="round" stroke-linejoin="round"/>
<path d="M17.4222 22.1921C17.4222 22.9138 16.904 23.395 16.1268 23.395H14.8315C14.0543 23.395 13.5361 22.9138 13.5361 22.1921V7.99884C13.5361 7.27715 14.0543 6.79602 14.8315 6.79602H16.1268C16.904 6.79602 17.4222 7.27715 17.4222 7.99884V22.1921Z" stroke="#1E1E1E" stroke-width="1.5" stroke-miterlimit="10" stroke-linecap="round" stroke-linejoin="round"/>
<path d="M25.1946 22.1921C25.1946 22.9138 24.6765 23.3949 23.8993 23.3949H22.6039C21.8267 23.3949 21.3086 22.9138 21.3086 22.1921V14.0129C21.3086 13.2912 21.8267 12.8101 22.6039 12.8101H23.8993C24.6765 12.8101 25.1946 13.2912 25.1946 14.0129V22.1921Z" stroke="#1E1E1E" stroke-width="1.5" stroke-miterlimit="10" stroke-linecap="round" stroke-linejoin="round"/>
</g>
<defs>
<clipPath id="clip0_322_308">
<rect width="31.0884" height="28.8678" fill="white"/>
</clipPath>
</defs>
</svg>
