<svg width="233" height="196" viewBox="0 0 233 196" fill="none" xmlns="http://www.w3.org/2000/svg">
<g clip-path="url(#clip0_42_283)">
<path d="M205.374 11.9064H0.322036C0.235976 11.9045 0.154086 11.8688 0.0938963 11.807C0.0337066 11.7452 0 11.6621 0 11.5757C0 11.4892 0.0337066 11.4062 0.0938963 11.3444C0.154086 11.2825 0.235976 11.2469 0.322036 11.2449H205.374C205.46 11.2469 205.541 11.2825 205.602 11.3444C205.662 11.4062 205.696 11.4892 205.696 11.5757C205.696 11.6621 205.662 11.7452 205.602 11.807C205.541 11.8688 205.46 11.9045 205.374 11.9064Z" fill="#CACACA"/>
<path d="M7.57146 7.27612C9.52815 7.27612 11.1144 5.6473 11.1144 3.63806C11.1144 1.62881 9.52815 0 7.57146 0C5.61477 0 4.02856 1.62881 4.02856 3.63806C4.02856 5.6473 5.61477 7.27612 7.57146 7.27612Z" fill="#3F3D56"/>
<path d="M19.8105 7.27612C21.7672 7.27612 23.3534 5.6473 23.3534 3.63806C23.3534 1.62881 21.7672 0 19.8105 0C17.8538 0 16.2676 1.62881 16.2676 3.63806C16.2676 5.6473 17.8538 7.27612 19.8105 7.27612Z" fill="#3F3D56"/>
<path d="M32.0497 7.27612C34.0064 7.27612 35.5926 5.6473 35.5926 3.63806C35.5926 1.62881 34.0064 0 32.0497 0C30.093 0 28.5068 1.62881 28.5068 3.63806C28.5068 5.6473 30.093 7.27612 32.0497 7.27612Z" fill="#3F3D56"/>
<path d="M198.039 0.901733H189.345C189.173 0.90517 189.009 0.976347 188.888 1.09998C188.768 1.22361 188.7 1.38984 188.7 1.56297C188.7 1.73611 188.768 1.90233 188.888 2.02597C189.009 2.1496 189.173 2.22078 189.345 2.22421H198.039C198.212 2.22078 198.376 2.1496 198.496 2.02597C198.617 1.90233 198.685 1.73611 198.685 1.56297C198.685 1.38984 198.617 1.22361 198.496 1.09998C198.376 0.976347 198.212 0.90517 198.039 0.901733Z" fill="#3F3D56"/>
<path d="M198.039 3.38379H189.345C189.173 3.38723 189.009 3.4584 188.888 3.58203C188.768 3.70567 188.7 3.8719 188.7 4.04503C188.7 4.21817 188.768 4.38439 188.888 4.50803C189.009 4.63166 189.173 4.70284 189.345 4.70627H198.039C198.212 4.70284 198.376 4.63166 198.496 4.50803C198.617 4.38439 198.685 4.21817 198.685 4.04503C198.685 3.8719 198.617 3.70567 198.496 3.58203C198.376 3.4584 198.212 3.38723 198.039 3.38379Z" fill="#3F3D56"/>
<path d="M198.039 5.86267H189.345C189.173 5.86611 189.009 5.93728 188.888 6.06092C188.768 6.18455 188.7 6.35078 188.7 6.52391C188.7 6.69704 188.768 6.86327 188.888 6.9869C189.009 7.11054 189.173 7.18171 189.345 7.18515H198.039C198.212 7.18171 198.376 7.11054 198.496 6.9869C198.617 6.86327 198.685 6.69704 198.685 6.52391C198.685 6.35078 198.617 6.18455 198.496 6.06092C198.376 5.93728 198.212 5.86611 198.039 5.86267Z" fill="#3F3D56"/>
<path d="M194.793 23.0737H8.02539C6.99122 23.0752 5.99985 23.4886 5.26858 24.2231C4.53731 24.9576 4.12581 25.9535 4.12427 26.9922V27.6242C4.12581 28.663 4.53731 29.6588 5.26858 30.3933C5.99985 31.1278 6.99122 31.5412 8.02539 31.5428H194.793C195.827 31.5412 196.818 31.1278 197.55 30.3933C198.281 29.6588 198.692 28.663 198.694 27.6242V26.9922C198.692 25.9535 198.281 24.9576 197.55 24.2231C196.818 23.4886 195.827 23.0752 194.793 23.0737Z" fill="#F0F0F0"/>
<path d="M30.5648 28.8718H12.7866C12.3889 28.8712 12.0076 28.7121 11.7265 28.4293C11.4455 28.1466 11.2876 27.7634 11.2876 27.3638C11.2876 26.9643 11.4455 26.581 11.7265 26.2983C12.0076 26.0156 12.3889 25.8564 12.7866 25.8558H30.5648C32.5008 25.8287 32.5202 28.8992 30.5648 28.8718Z" fill="white"/>
<path d="M83.7471 28.8718H65.969C65.5712 28.8712 65.19 28.7121 64.9089 28.4293C64.6278 28.1466 64.47 27.7634 64.47 27.3638C64.47 26.9643 64.6278 26.581 64.9089 26.2983C65.19 26.0156 65.5712 25.8564 65.969 25.8558H83.7471C85.6832 25.8287 85.7025 28.8992 83.7471 28.8718Z" fill="white"/>
<path d="M136.93 28.8718H119.151C118.754 28.8712 118.372 28.7121 118.091 28.4293C117.81 28.1466 117.652 27.7634 117.652 27.3638C117.652 26.9643 117.81 26.581 118.091 26.2983C118.372 26.0156 118.754 25.8564 119.151 25.8558H136.93C138.866 25.8287 138.885 28.8992 136.93 28.8718Z" fill="white"/>
<path d="M187.355 29.0347H169.577C169.179 29.0347 168.797 28.8758 168.516 28.593C168.234 28.3102 168.076 27.9266 168.076 27.5267C168.076 27.1268 168.234 26.7432 168.516 26.4604C168.797 26.1776 169.179 26.0187 169.577 26.0187H187.355C189.291 25.9916 189.311 29.0621 187.355 29.0347Z" fill="#178DC8"/>
<path d="M159.618 23.0737H158.969V31.5428H159.618V23.0737Z" fill="white"/>
<path d="M92.5058 148.42H16.2822C15.603 148.419 14.9519 148.148 14.4716 147.666C13.9914 147.183 13.7212 146.529 13.7205 145.847V134.633C13.7212 133.951 13.9914 133.297 14.4716 132.815C14.9519 132.332 15.603 132.061 16.2822 132.06H92.5058C93.185 132.061 93.8361 132.332 94.3164 132.815C94.7966 133.297 95.0667 133.951 95.0675 134.633V145.847C95.0667 146.529 94.7966 147.183 94.3164 147.666C93.8361 148.148 93.185 148.419 92.5058 148.42Z" fill="#F0F0F0"/>
<path d="M85.0997 146.684H18.0104C17.3313 146.684 16.6802 146.412 16.1999 145.93C15.7197 145.447 15.4495 144.793 15.4487 144.111V136.37C15.4495 135.688 15.7197 135.034 16.1999 134.552C16.6802 134.069 17.3313 133.798 18.0104 133.797H90.7779C91.457 133.798 92.1081 134.069 92.5884 134.552C93.0686 135.034 93.3388 135.688 93.3396 136.37V138.408C93.3371 140.602 92.4682 142.706 90.9235 144.258C89.3787 145.809 87.2843 146.682 85.0997 146.684Z" fill="white"/>
<path d="M61.9579 139.442H31.3218C31.1466 139.442 30.9785 139.373 30.8546 139.248C30.7307 139.124 30.6611 138.955 30.6611 138.779C30.6611 138.603 30.7307 138.434 30.8546 138.31C30.9785 138.185 31.1466 138.115 31.3218 138.115H61.9579C62.1331 138.115 62.3012 138.185 62.4251 138.31C62.549 138.434 62.6186 138.603 62.6186 138.779C62.6186 138.955 62.549 139.124 62.4251 139.248C62.3012 139.373 62.1331 139.442 61.9579 139.442Z" fill="#E6E6E6"/>
<path d="M77.4664 142.157H31.3218C31.2349 142.157 31.1488 142.14 31.0685 142.107C30.9882 142.073 30.9152 142.025 30.8537 141.963C30.7922 141.901 30.7434 141.828 30.7101 141.747C30.6768 141.667 30.6597 141.58 30.6597 141.493C30.6597 141.406 30.6768 141.319 30.7101 141.239C30.7434 141.158 30.7922 141.085 30.8537 141.023C30.9152 140.962 30.9882 140.913 31.0685 140.88C31.1488 140.846 31.2349 140.829 31.3218 140.829H77.4664C77.6414 140.83 77.809 140.9 77.9326 141.024C78.0562 141.149 78.1256 141.317 78.1256 141.493C78.1256 141.669 78.0562 141.837 77.9326 141.962C77.809 142.086 77.6414 142.156 77.4664 142.157Z" fill="#E6E6E6"/>
<path d="M97.3749 119.23H10.4639C9.77041 119.23 9.10554 118.952 8.61516 118.46C8.12478 117.967 7.84894 117.299 7.84814 116.603V49.8706C7.84894 49.174 8.12478 48.5061 8.61517 48.0136C9.10555 47.521 9.77042 47.2439 10.4639 47.2432H97.3749C98.0684 47.2439 98.7333 47.521 99.2237 48.0136C99.7141 48.5061 99.9899 49.174 99.9907 49.8706V116.603C99.9899 117.299 99.7141 117.967 99.2237 118.46C98.7333 118.952 98.0685 119.23 97.3749 119.23Z" fill="white"/>
<path d="M97.3749 119.556H10.464C9.68453 119.555 8.93724 119.244 8.38606 118.69C7.83489 118.136 7.52483 117.386 7.52393 116.603V49.8705C7.52484 49.0875 7.83489 48.3369 8.38607 47.7833C8.93725 47.2297 9.68454 46.9183 10.464 46.9174H97.3749C98.1544 46.9183 98.9017 47.2297 99.4529 47.7833C100.004 48.3369 100.314 49.0875 100.315 49.8705V116.603C100.314 117.386 100.004 118.136 99.4529 118.69C98.9017 119.244 98.1544 119.555 97.3749 119.556ZM10.464 47.5689C9.85649 47.5696 9.27405 47.8123 8.84446 48.2438C8.41487 48.6752 8.1732 49.2603 8.17249 49.8705V116.603C8.17317 117.213 8.41482 117.798 8.84441 118.23C9.27401 118.661 9.85647 118.904 10.464 118.905H97.3749C97.9825 118.904 98.5649 118.661 98.9945 118.23C99.4241 117.798 99.6657 117.213 99.6664 116.603V49.8705C99.6657 49.2603 99.4241 48.6752 98.9945 48.2437C98.5649 47.8123 97.9825 47.5696 97.3749 47.5689L10.464 47.5689Z" fill="#F0F0F0"/>
<path d="M8.04883 106.527V116.603C8.04978 117.246 8.30453 117.862 8.75722 118.317C9.20991 118.772 9.82362 119.028 10.4638 119.029H97.375C98.0152 119.028 98.6289 118.772 99.0816 118.317C99.5342 117.862 99.789 117.246 99.7899 116.603V106.527H8.04883Z" fill="#F0F0F0"/>
<path d="M8.86795 47.6683L8.51831 48.2169L99.6152 106.801L99.9649 106.252L8.86795 47.6683Z" fill="#F0F0F0"/>
<path d="M99.8723 47.6683L8.77539 106.252L9.12503 106.801L100.222 48.2168L99.8723 47.6683Z" fill="#F0F0F0"/>
<path d="M176.852 191.462L172.834 191.462L170.923 175.896L176.853 175.896L176.852 191.462Z" fill="#A0616A"/>
<path d="M176.745 190.144L172.458 188.394L172.331 188.342L169.964 190.144C168.665 190.143 167.416 190.647 166.478 191.55C165.539 192.452 164.984 193.684 164.928 194.987C164.922 195.059 164.922 195.134 164.922 195.209V195.375H177.877V190.144H176.745Z" fill="#2F2E41"/>
<path d="M167.443 187.707L163.653 189.046L156.706 174.999L162.3 173.022L167.443 187.707Z" fill="#A0616A"/>
<path d="M166.906 186.498L162.284 186.277L162.148 186.27L160.51 188.759C159.284 189.192 158.273 190.083 157.686 191.248C157.099 192.412 156.982 193.758 157.36 195.007C157.377 195.077 157.402 195.147 157.427 195.218L157.482 195.375L169.702 191.056L167.974 186.121L166.906 186.498Z" fill="#2F2E41"/>
<path d="M178.272 124.342C181.948 124.199 177.394 153.622 177.394 153.622C177.394 153.622 178.726 179.455 178.444 180.811C178.161 182.166 178.408 185.822 178.408 185.822C177.688 184.506 170.258 185.499 170.258 185.499L169.247 159.318L164.087 138.341L156.933 152.402L163.79 173.986C163.79 173.986 166.567 176.567 166.271 177.587C165.976 178.607 158.702 180.907 157.366 180.959C156.029 181.011 156.633 179.307 156.568 177.629C156.503 175.95 150.213 160.396 148.001 155.103C145.789 149.811 147.509 142.349 148.638 136.926C149.767 131.503 155.708 121.327 155.708 121.327C163.083 112.972 174.596 124.485 178.272 124.342Z" fill="#2F2E41"/>
<path d="M133.476 100.564C133.678 100.951 133.961 101.288 134.306 101.553C134.651 101.817 135.05 102.003 135.474 102.096C135.898 102.189 136.338 102.187 136.761 102.091C137.185 101.995 137.582 101.807 137.925 101.54L146.765 107.333L146.738 101.824L138.348 97.1675C137.863 96.6178 137.195 96.2659 136.469 96.1783C135.743 96.0907 135.011 96.2736 134.41 96.6923C133.81 97.111 133.383 97.7364 133.211 98.4501C133.039 99.1637 133.133 99.916 133.476 100.564Z" fill="#A0616A"/>
<path d="M176.363 129.059C167.247 129.059 162.224 127.227 159.556 125.59C156.295 123.589 155.736 121.479 155.714 121.389L155.708 121.364L156.025 117.351L156.164 117.038C156.804 115.6 156.889 113.974 156.402 112.476L156.392 112.445L156.395 112.413L158.526 84.646L166.069 82.1641L168.263 79.9495L178.033 79.8072L179.394 82.5793L187.096 85.4918L183.312 108.116L181.499 111.257L182.228 114.678L182.223 114.709L179.844 128.976L179.713 128.982C178.539 129.034 177.422 129.06 176.363 129.059Z" fill="#3F3D56"/>
<path d="M152.78 111.736L149.204 109.606L148.98 109.281C148.525 108.623 147.922 108.082 147.221 107.7C146.519 107.318 145.739 107.107 144.941 107.083L144.9 107.082L139.974 104.173L142.016 98.1657L149.737 100.457L155.12 87.0222C155.416 86.2843 155.909 85.6433 156.546 85.1704C157.183 84.6975 157.937 84.4113 158.726 84.3436C159.515 84.2758 160.308 84.4292 161.015 84.7868C161.722 85.1443 162.317 85.6919 162.733 86.3686C163.159 87.076 163.38 87.8888 163.371 88.7156V97.5062L163.339 97.5498L152.78 111.736Z" fill="#3F3D56"/>
<path d="M176.689 123.892C176.765 123.463 176.934 123.056 177.184 122.699C177.434 122.342 177.759 122.045 178.136 121.829C178.513 121.612 178.932 121.481 179.365 121.445C179.798 121.408 180.233 121.468 180.64 121.619L187.339 113.426L188.961 118.689L182.351 125.662C182.053 126.332 181.521 126.87 180.855 127.172C180.189 127.475 179.435 127.522 178.737 127.303C178.039 127.085 177.445 126.618 177.068 125.989C176.69 125.36 176.555 124.614 176.689 123.892Z" fill="#A0616A"/>
<path d="M186.704 122.857L182.256 118.389L185.087 111.459L189.191 105.831C184.818 103.692 181.536 98.6269 179.158 94.4337L179.131 94.3867L179.723 89.7274C179.862 88.6377 180.296 87.6073 180.979 86.7492C181.573 86.0031 182.336 85.4106 183.205 85.0213C184.073 84.6321 185.022 84.4574 185.972 84.5119C186.921 84.5664 187.844 84.8485 188.663 85.3346C189.482 85.8207 190.173 86.4966 190.678 87.3059L198.653 105.113L198.563 105.248L192.149 116.231L190.398 117.372L186.704 122.857Z" fill="#3F3D56"/>
<path d="M180.163 70.4669C179.869 72.614 178.74 74.5564 177.021 75.8673C175.303 77.1781 173.137 77.7503 170.999 77.458C168.862 77.1657 166.927 76.033 165.62 74.3085C164.313 72.5841 163.741 70.4091 164.03 68.2613L164.045 68.1452C164.383 66.0262 165.536 64.1252 167.256 62.8524C168.976 61.5796 171.125 61.037 173.24 61.3416C175.355 61.6463 177.265 62.7737 178.56 64.4808C179.855 66.1878 180.429 68.3377 180.16 70.4665L180.163 70.4669Z" fill="#A0616A"/>
<path d="M178.091 74.6789C178.509 73.8259 178.938 72.91 178.821 71.9666C178.703 71.0231 177.782 70.1213 176.878 70.4017C176.337 70.5694 175.928 71.1059 175.363 71.1333C174.585 71.1711 174.139 70.2768 173.897 69.5333L172.91 66.5051C171.963 67.2464 170.865 67.7686 169.694 68.0344C168.523 68.3002 167.308 68.3031 166.136 68.0428C165.22 67.8325 164.295 67.4225 163.758 66.6486C163.221 65.8746 163.224 64.6741 163.961 64.0888C164.322 63.8019 164.803 63.6928 165.148 63.3866C165.362 63.1967 165.51 62.9425 165.569 62.6618C165.628 62.381 165.596 62.0886 165.476 61.8278C165.357 61.567 165.158 61.3516 164.907 61.2136C164.657 61.0755 164.369 61.0222 164.086 61.0614L166.569 60.7496L165.829 59.4056C166.11 59.5979 166.428 59.729 166.763 59.7907C167.097 59.8523 167.441 59.8431 167.772 59.7637C168.44 59.6428 169.069 59.3665 169.723 59.1823C171.307 58.776 172.98 58.9001 174.487 59.536C175.994 60.1718 177.254 61.2845 178.074 62.705C178.685 62.5 179.344 62.4864 179.963 62.6659C180.582 62.8454 181.132 63.2096 181.54 63.7102C182.205 64.5576 182.385 65.6884 182.411 66.767C182.46 68.8935 181.998 71.0006 181.065 72.9104C180.798 73.517 180.414 74.0645 179.935 74.5214C179.694 74.7479 179.406 74.9187 179.092 75.0218C178.778 75.1249 178.446 75.1577 178.118 75.1181" fill="#2F2E41"/>
<path d="M46.1693 66.2651C46.3021 68.1697 46.8607 70.0197 47.8035 71.6775C49.7905 75.1827 53.1979 77.7205 56.8678 79.229C61.4528 81.1136 66.5639 81.1717 71.4297 80.7514C75.9492 80.3611 80.4226 79.4564 84.9587 79.2699C88.4667 79.1572 91.9782 79.2413 95.4768 79.5219C102.265 80.0059 109.024 80.9038 115.74 81.9923C117.559 82.2835 119.374 82.5963 121.185 82.9309C121.356 82.946 121.526 82.9776 121.691 83.0252C121.724 83.0388 121.777 83.0282 121.807 83.0472C121.862 83.0818 121.586 82.9596 121.753 83.0984C121.986 83.3439 122.194 83.6125 122.373 83.8999L124.853 87.1062C125.565 88.0257 126.225 89.1428 127.144 89.8676C127.792 90.3706 128.574 90.6695 129.391 90.7267C130.209 90.7839 131.024 90.5968 131.736 90.189C132.479 89.7173 133.072 89.0411 133.443 88.2408C134.014 87.1897 134.694 86.2028 135.474 85.297C138.425 81.839 142.526 79.7122 145.956 76.8027C147.618 75.4511 149.036 73.8228 150.148 71.989C151.098 70.3295 151.688 68.4876 151.881 66.5834C152.291 62.7166 151.11 58.7731 149.123 55.4835C146.962 51.9494 143.857 49.0949 140.162 47.2445C136.01 45.12 131.417 44.0852 126.812 43.5695C121.923 43.022 116.977 43.0237 112.064 43.079C106.55 43.1406 101.047 43.3842 95.5532 43.8096C90.0521 44.2373 84.5726 44.8453 79.1149 45.6335C73.8779 46.3898 68.577 47.1781 63.4508 48.5163C58.9222 49.6985 54.4064 51.5463 51.0247 54.8944C48.018 57.8714 45.9267 61.9451 46.1693 66.2651Z" fill="#178DC8"/>
<path d="M71.4829 67.4952C71.259 67.4851 71.0397 67.4285 70.8386 67.3291C70.6376 67.2296 70.4592 67.0894 70.3147 66.9173C70.1703 66.7452 70.0628 66.545 69.9992 66.3291C69.9355 66.1133 69.9171 65.8865 69.9449 65.6632L70.0613 64.743C70.0835 64.5665 70.0627 64.3873 70.0007 64.2206C69.9387 64.054 69.8374 63.905 69.7053 63.7864L69.0173 63.1688C68.7919 62.9666 68.6274 62.7051 68.5423 62.4139C68.4572 62.1227 68.455 61.8134 68.5358 61.521C68.6166 61.2285 68.7773 60.9647 68.9996 60.7592C69.2219 60.5537 69.4971 60.4148 69.7939 60.3582L70.701 60.1851C70.8749 60.152 71.0382 60.0769 71.1768 59.9663C71.3153 59.8557 71.4251 59.7129 71.4965 59.5502L71.8688 58.7009C71.9907 58.4233 72.1875 58.1854 72.437 58.0142C72.6864 57.8431 72.9786 57.7454 73.2804 57.7322C73.5822 57.7191 73.8816 57.791 74.1449 57.9399C74.4081 58.0887 74.6247 58.3086 74.7701 58.5746L75.2139 59.3876C75.299 59.5437 75.4207 59.6767 75.5684 59.775C75.7161 59.8733 75.8854 59.9341 76.0617 59.952L76.9801 60.0452C77.2807 60.0757 77.5668 60.1901 77.806 60.3755C78.0452 60.5609 78.228 60.8098 78.3338 61.0941C78.4395 61.3784 78.464 61.6867 78.4043 61.9842C78.3447 62.2817 78.2034 62.5566 77.9963 62.7776L77.3639 63.453C77.2425 63.5824 77.1543 63.7396 77.1069 63.9109C77.0595 64.0822 77.0544 64.2626 77.092 64.4364L77.2871 65.3433C77.3509 65.6399 77.331 65.9485 77.2294 66.2342C77.1278 66.5199 76.9486 66.7714 76.7122 66.9602C76.4757 67.149 76.1914 67.2676 75.8914 67.3026C75.5913 67.3376 75.2875 67.2876 75.0143 67.1582L74.1792 66.7629C74.0191 66.6868 73.8429 66.6509 73.6659 66.6586C73.489 66.6662 73.3165 66.7171 73.1635 66.8068L72.3655 67.2735C72.0984 67.4305 71.7922 67.5075 71.4829 67.4952Z" fill="white"/>
<path d="M84.4849 67.1159C84.073 67.0968 83.6834 66.9221 83.3943 66.6268C83.2195 66.4409 83.0892 66.2175 83.0132 65.9736C82.9371 65.7296 82.9173 65.4715 82.9552 65.2187L83.062 64.3744C83.0847 64.1946 83.0636 64.012 83.0004 63.8422C82.9373 63.6725 82.834 63.5207 82.6995 63.3999L82.0612 62.827C81.873 62.6656 81.7229 62.4641 81.622 62.2371C81.5211 62.0101 81.4718 61.7634 81.4778 61.5148C81.4917 61.1467 81.6297 60.7942 81.8692 60.5151C82.1087 60.2361 82.4355 60.047 82.796 59.9789L83.6925 59.8078C83.8698 59.774 84.0362 59.6974 84.1775 59.5845C84.3187 59.4717 84.4305 59.3261 84.5032 59.1602L84.8373 58.398C84.9568 58.1088 85.1534 57.8582 85.4055 57.6739C85.6576 57.4897 85.9554 57.3789 86.2662 57.3537C86.5708 57.3363 86.874 57.4062 87.1406 57.5552C87.4072 57.7042 87.6262 57.9261 87.7721 58.1952L88.2108 58.9988C88.2976 59.1579 88.4217 59.2934 88.5722 59.3935C88.7228 59.4937 88.8954 59.5556 89.0751 59.5738L89.9262 59.6602C90.1731 59.6796 90.4125 59.7541 90.6271 59.8782C90.8417 60.0024 91.0259 60.1731 91.1665 60.378C91.3703 60.6841 91.4647 61.0506 91.4342 61.4176C91.4036 61.7847 91.25 62.1304 90.9984 62.3983L90.3732 63.0658C90.2497 63.1977 90.16 63.3578 90.1117 63.5323C90.0635 63.7068 90.0582 63.8904 90.0962 64.0674L90.2764 64.9048C90.3341 65.1465 90.3377 65.3981 90.287 65.6414C90.2362 65.8846 90.1322 66.1135 89.9827 66.3116C89.7567 66.6025 89.4387 66.8073 89.0813 66.8923C88.7238 66.9773 88.3481 66.9373 88.0163 66.7789L87.1899 66.3877C87.0268 66.3105 86.8476 66.2743 86.6675 66.2822C86.4875 66.2901 86.312 66.3418 86.1563 66.4329L85.3676 66.8942C85.1005 67.0512 84.7942 67.1281 84.4849 67.1159Z" fill="white"/>
<path d="M97.521 67.0605C97.2971 67.0504 97.0778 66.9938 96.8767 66.8944C96.6757 66.7949 96.4973 66.6547 96.3528 66.4826C96.2083 66.3105 96.1009 66.1103 96.0373 65.8944C95.9736 65.6786 95.9552 65.4518 95.983 65.2285L96.0994 64.3083C96.1216 64.1318 96.1008 63.9526 96.0388 63.7859C95.9768 63.6193 95.8754 63.4703 95.7434 63.3517L95.0553 62.7341C94.83 62.5319 94.6655 62.2704 94.5804 61.9792C94.4953 61.688 94.4931 61.3787 94.5739 61.0863C94.6547 60.7938 94.8154 60.53 95.0377 60.3245C95.26 60.119 95.5352 59.9801 95.832 59.9235L96.7391 59.7504C96.913 59.7173 97.0763 59.6422 97.2148 59.5316C97.3534 59.421 97.4632 59.2782 97.5346 59.1155L97.9069 58.2662C98.0288 57.9886 98.2256 57.7507 98.4751 57.5796C98.7245 57.4084 99.0166 57.3107 99.3184 57.2975C99.6203 57.2844 99.9197 57.3563 100.183 57.5052C100.446 57.654 100.663 57.8739 100.808 58.1399L101.252 58.9529C101.337 59.109 101.459 59.242 101.606 59.3403C101.754 59.4386 101.924 59.4993 102.1 59.5173L103.018 59.6105C103.319 59.641 103.605 59.7554 103.844 59.9408C104.083 60.1262 104.266 60.3751 104.372 60.6594C104.478 60.9437 104.502 61.252 104.442 61.5495C104.383 61.847 104.241 62.1219 104.034 62.3429L103.402 63.0183C103.281 63.1477 103.192 63.3049 103.145 63.4762C103.098 63.6475 103.092 63.8279 103.13 64.0017L103.325 64.9086C103.389 65.2052 103.369 65.5138 103.267 65.7995C103.166 66.0852 102.987 66.3367 102.75 66.5255C102.514 66.7143 102.229 66.8329 101.929 66.8679C101.629 66.9029 101.326 66.8529 101.052 66.7235L100.217 66.3283C100.057 66.2521 99.881 66.2162 99.704 66.2239C99.527 66.2315 99.3546 66.2824 99.2016 66.3721L98.4036 66.8388C98.1365 66.9958 97.8302 67.0728 97.521 67.0605Z" fill="white"/>
<path opacity="0.2" d="M110.201 66.715C109.977 66.7049 109.757 66.6483 109.556 66.5488C109.355 66.4494 109.177 66.3092 109.032 66.1371C108.888 65.965 108.781 65.7647 108.717 65.5489C108.653 65.3331 108.635 65.1063 108.663 64.883L108.779 63.9628C108.801 63.7863 108.781 63.6071 108.719 63.4404C108.656 63.2738 108.555 63.1247 108.423 63.0061L107.735 62.3885C107.51 62.1864 107.345 61.9249 107.26 61.6337C107.175 61.3425 107.173 61.0332 107.254 60.7408C107.334 60.4483 107.495 60.1844 107.717 59.979C107.94 59.7735 108.215 59.6346 108.512 59.578L109.419 59.4049C109.593 59.3718 109.756 59.2967 109.895 59.1861C110.033 59.0755 110.143 58.9327 110.214 58.77L110.587 57.9207C110.709 57.6431 110.905 57.4052 111.155 57.234C111.404 57.0629 111.696 56.9652 111.998 56.952C112.3 56.9389 112.599 57.0108 112.863 57.1597C113.126 57.3085 113.342 57.5284 113.488 57.7944L113.932 58.6074C114.017 58.7635 114.138 58.8964 114.286 58.9948C114.434 59.0931 114.603 59.1538 114.78 59.1718L115.698 59.265C115.998 59.2955 116.285 59.4099 116.524 59.5953C116.763 59.7806 116.946 60.0296 117.052 60.3139C117.157 60.5981 117.182 60.9065 117.122 61.204C117.062 61.5015 116.921 61.7763 116.714 61.9974L116.082 62.6728C115.96 62.8022 115.872 62.9594 115.825 63.1307C115.777 63.302 115.772 63.4824 115.81 63.6562L116.005 64.5631C116.069 64.8597 116.049 65.1682 115.947 65.454C115.846 65.7397 115.666 65.9912 115.43 66.18C115.193 66.3688 114.909 66.4874 114.609 66.5224C114.309 66.5574 114.005 66.5074 113.732 66.378L112.897 65.9827C112.737 65.9065 112.561 65.8707 112.384 65.8784C112.207 65.886 112.034 65.9369 111.881 66.0266L111.083 66.4933C110.816 66.6503 110.51 66.7273 110.201 66.715Z" fill="black"/>
<path opacity="0.2" d="M122.88 66.3695C122.656 66.3594 122.437 66.3028 122.236 66.2033C122.035 66.1039 121.857 65.9637 121.712 65.7916C121.568 65.6195 121.46 65.4192 121.397 65.2034C121.333 64.9875 121.315 64.7608 121.342 64.5374L121.459 63.6173C121.481 63.4408 121.46 63.2615 121.398 63.0949C121.336 62.9282 121.235 62.7792 121.103 62.6606L120.415 62.043C120.189 61.8409 120.025 61.5794 119.94 61.2882C119.855 60.997 119.852 60.6877 119.933 60.3952C120.014 60.1028 120.175 59.8389 120.397 59.6334C120.619 59.4279 120.895 59.289 121.191 59.2325L122.098 59.0594C122.272 59.0262 122.436 58.9512 122.574 58.8405C122.713 58.7299 122.823 58.5872 122.894 58.4245L123.266 57.5752C123.388 57.2975 123.585 57.0597 123.834 56.8885C124.084 56.7173 124.376 56.6197 124.678 56.6065C124.98 56.5934 125.279 56.6653 125.542 56.8141C125.806 56.963 126.022 57.1828 126.167 57.4488L126.611 58.2619C126.696 58.418 126.818 58.5509 126.966 58.6493C127.114 58.7476 127.283 58.8083 127.459 58.8263L128.378 58.9194C128.678 58.95 128.964 59.0644 129.203 59.2498C129.443 59.4351 129.626 59.684 129.731 59.9683C129.837 60.2526 129.861 60.561 129.802 60.8585C129.742 61.156 129.601 61.4308 129.394 61.6519L128.761 62.3273C128.64 62.4567 128.552 62.6139 128.504 62.7852C128.457 62.9565 128.452 63.1369 128.489 63.3106L128.685 64.2176C128.748 64.5142 128.728 64.8227 128.627 65.1085C128.525 65.3942 128.346 65.6457 128.11 65.8345C127.873 66.0233 127.589 66.1419 127.289 66.1769C126.989 66.2119 126.685 66.1619 126.412 66.0325L125.577 65.6372C125.417 65.561 125.24 65.5252 125.063 65.5329C124.886 65.5405 124.714 65.5914 124.561 65.6811L123.763 66.1478C123.496 66.3048 123.19 66.3817 122.88 66.3695Z" fill="black"/>
<path d="M203.663 175.039L204.034 166.662C207.901 164.586 212.214 163.489 216.598 163.467C210.564 168.423 211.318 177.975 207.227 184.64C205.935 186.708 204.196 188.458 202.139 189.76C200.083 191.062 197.761 191.883 195.345 192.16L190.295 195.266C189.603 191.386 189.755 187.401 190.743 183.586C191.731 179.771 193.531 176.216 196.018 173.167C197.43 171.47 199.05 169.959 200.838 168.668C202.047 171.872 203.663 175.039 203.663 175.039Z" fill="#F2F2F2"/>
<path d="M232.614 196H97.264C97.1616 196 97.0634 195.959 96.991 195.886C96.9186 195.814 96.8779 195.715 96.8779 195.612C96.8779 195.509 96.9186 195.411 96.991 195.338C97.0634 195.265 97.1616 195.224 97.264 195.224H232.614C232.716 195.224 232.814 195.265 232.887 195.338C232.959 195.411 233 195.509 233 195.612C233 195.715 232.959 195.814 232.887 195.886C232.814 195.959 232.716 196 232.614 196Z" fill="#CACACA"/>
</g>
<defs>
<clipPath id="clip0_42_283">
<rect width="233" height="196" fill="white"/>
</clipPath>
</defs>
</svg>
