<svg width="243" height="168" viewBox="0 0 243 168" fill="none" xmlns="http://www.w3.org/2000/svg">
<g clip-path="url(#clip0_42_198)">
<path d="M199.456 100.582C199.617 100.533 199.781 100.496 199.948 100.474L206.583 86.5529L204.557 83.4173L208.741 79.6422L214.001 86.2871L203.289 102.383C203.552 102.991 203.63 103.669 203.512 104.324C203.394 104.979 203.085 105.582 202.627 106.052C202.169 106.522 201.583 106.837 200.947 106.955C200.311 107.072 199.656 106.987 199.068 106.711C198.48 106.435 197.988 105.981 197.656 105.409C197.325 104.836 197.17 104.174 197.212 103.508C197.254 102.843 197.491 102.207 197.892 101.684C198.293 101.161 198.839 100.777 199.456 100.582Z" fill="#A0616A"/>
<path d="M210.784 81.5654C210.693 81.6637 210.59 81.7481 210.476 81.816L203.687 85.8795C203.523 85.9772 203.342 86.0388 203.155 86.0606C202.967 86.0823 202.778 86.0637 202.598 86.0058C202.418 85.948 202.251 85.8522 202.109 85.7244C201.966 85.5967 201.851 85.4399 201.77 85.2638L198.468 78.0612C198.328 77.7581 198.298 77.413 198.383 77.0888C198.469 76.7646 198.664 76.4829 198.934 76.2952L203.143 73.3393C203.405 73.1549 203.722 73.071 204.039 73.102C204.355 73.1331 204.651 73.2772 204.875 73.5095L210.758 79.6042C211.008 79.8636 211.151 80.2133 211.155 80.5794C211.16 80.9454 211.027 81.299 210.784 81.5654Z" fill="#CCCCCC"/>
<path d="M220.316 161.333L216.732 162.34L211.264 148.544L216.554 147.058L220.316 161.333Z" fill="#A0616A"/>
<path d="M213.893 162.002L220.806 160.06L221.99 164.554L210.724 167.718C210.569 167.128 210.527 166.512 210.602 165.906C210.677 165.299 210.868 164.713 211.162 164.183C211.456 163.652 211.849 163.186 212.317 162.812C212.786 162.438 213.321 162.162 213.893 162.002Z" fill="#2F2E41"/>
<path d="M189.673 164.157L185.958 164.157L184.191 149.363L189.673 149.363L189.673 164.157Z" fill="#A0616A"/>
<path d="M183.304 163.061H190.469V167.718H178.793C178.793 167.107 178.91 166.501 179.137 165.936C179.364 165.371 179.696 164.857 180.115 164.425C180.534 163.992 181.031 163.649 181.578 163.415C182.125 163.181 182.712 163.061 183.304 163.061Z" fill="#2F2E41"/>
<path d="M193.587 68.4283C197.697 68.4283 201.029 64.9881 201.029 60.7444C201.029 56.5007 197.697 53.0605 193.587 53.0605C189.477 53.0605 186.145 56.5007 186.145 60.7444C186.145 64.9881 189.477 68.4283 193.587 68.4283Z" fill="#A0616A"/>
<path d="M189.445 153.609H184.369C184.022 153.608 183.688 153.471 183.435 153.226C183.182 152.981 183.029 152.645 183.006 152.288C181.494 127.46 182.379 109.65 185.791 96.2399C185.806 96.1813 185.824 96.1236 185.846 96.0673L186.118 95.3656C186.219 95.1038 186.393 94.8793 186.619 94.7214C186.845 94.5635 187.112 94.4796 187.384 94.4805H197.824C198.02 94.4803 198.215 94.5242 198.393 94.609C198.572 94.6939 198.731 94.8177 198.859 94.9721L200.277 96.6802C200.304 96.7135 200.33 96.7474 200.355 96.7832C206.749 105.989 212.479 123.987 219.115 148.178C219.213 148.529 219.174 148.906 219.007 149.229C218.84 149.551 218.557 149.793 218.219 149.903L212.763 151.706C212.45 151.808 212.112 151.79 211.81 151.656C211.508 151.522 211.263 151.281 211.119 150.976L196.962 120.659C196.863 120.447 196.7 120.274 196.499 120.165C196.297 120.056 196.066 120.016 195.841 120.053C195.616 120.09 195.409 120.2 195.249 120.368C195.09 120.537 194.987 120.753 194.956 120.986L190.796 152.392C190.751 152.729 190.589 153.037 190.341 153.261C190.092 153.484 189.775 153.608 189.445 153.609Z" fill="#2F2E41"/>
<path d="M199.704 96.8051C199.69 96.8051 199.676 96.8048 199.662 96.8045L186.981 96.3912C186.655 96.3817 186.343 96.2516 186.103 96.0245C185.862 95.7974 185.708 95.4885 185.67 95.1541C184.062 81.7199 188.471 78.1209 190.441 77.1974C190.605 77.1207 190.748 77.0014 190.855 76.851C190.962 76.7006 191.029 76.5243 191.05 76.3392L191.221 74.931C191.25 74.6824 191.343 74.4463 191.49 74.2473C194.579 70.1161 198.797 68.7932 201.036 68.3725C201.217 68.3388 201.404 68.3436 201.584 68.3865C201.763 68.4295 201.933 68.5097 202.082 68.6223C202.23 68.735 202.356 68.8777 202.449 69.0418C202.543 69.2058 202.604 69.3879 202.627 69.5769L202.882 71.5988C202.908 71.7916 202.983 71.9741 203.099 72.1279C209.54 80.8226 202.364 93.6604 200.86 96.1455C200.737 96.3473 200.567 96.5136 200.364 96.629C200.162 96.7443 199.935 96.8049 199.704 96.8051Z" fill="#CCCCCC"/>
<path d="M208.602 61.6094C206.942 59.1958 204.951 57.0439 202.691 55.221C200.813 53.7063 198.723 52.4123 196.416 51.7933C194.11 51.1743 191.562 51.2796 189.458 52.4344C187.354 53.5891 185.178 55.8834 185.165 58.3439C185.16 59.1343 185.355 60.2038 186.109 60.067L186.327 60.0969C188.146 59.7176 189.965 59.3383 191.783 58.959C192.558 61.7346 193.333 64.5102 194.107 67.2857C194.271 67.8707 194.49 68.5249 195.028 68.7743C195.534 69.0093 196.12 68.7879 196.632 68.567C196.717 68.5306 197.441 66.8521 197.441 66.8521C197.459 66.7996 197.49 66.7531 197.532 66.7174C197.573 66.6816 197.623 66.6579 197.676 66.6487C197.729 66.6395 197.784 66.6452 197.834 66.6651C197.885 66.6849 197.929 66.7184 197.963 66.7618L198.393 67.317C198.475 67.4231 198.589 67.4987 198.716 67.5324C198.844 67.566 198.978 67.5559 199.1 67.5036C202.066 66.2252 205.032 64.9468 207.998 63.6685C208.408 63.4918 208.866 63.2611 208.985 62.8192C209.099 62.3958 208.848 61.9677 208.602 61.6094Z" fill="#2F2E41"/>
<path d="M242.697 168H151.491C151.41 168 151.333 167.967 151.276 167.908C151.22 167.85 151.188 167.77 151.188 167.687C151.188 167.604 151.22 167.525 151.276 167.466C151.333 167.407 151.41 167.374 151.491 167.374H242.697C242.777 167.374 242.854 167.407 242.911 167.466C242.968 167.525 243 167.604 243 167.687C243 167.77 242.968 167.85 242.911 167.908C242.854 167.967 242.777 168 242.697 168Z" fill="#3F3D56"/>
<path d="M193.251 119.247C193.045 119.246 192.844 119.177 192.678 119.051L191.299 118.017C191.185 117.93 191.047 117.884 190.905 117.884C190.763 117.884 190.625 117.93 190.511 118.017L189.131 119.051C188.965 119.176 188.765 119.243 188.559 119.243C188.353 119.243 188.153 119.176 187.987 119.051C187.82 118.926 187.697 118.751 187.633 118.549C187.569 118.347 187.569 118.129 187.633 117.927L188.16 116.253C188.204 116.114 188.204 115.964 188.16 115.825C188.116 115.686 188.031 115.565 187.916 115.479L186.537 114.444C186.37 114.319 186.247 114.144 186.183 113.942C186.12 113.74 186.12 113.522 186.183 113.32C186.247 113.118 186.371 112.942 186.537 112.818C186.703 112.693 186.904 112.626 187.109 112.626H188.814C188.956 112.626 189.094 112.58 189.209 112.494C189.323 112.408 189.408 112.286 189.452 112.147L189.979 110.473C190.042 110.271 190.166 110.095 190.332 109.97C190.499 109.846 190.699 109.778 190.905 109.778C191.11 109.778 191.311 109.846 191.477 109.97C191.644 110.095 191.767 110.271 191.831 110.473L192.358 112.147C192.401 112.286 192.486 112.408 192.601 112.494C192.716 112.58 192.854 112.626 192.996 112.626H194.7C194.906 112.626 195.106 112.693 195.273 112.818C195.439 112.942 195.563 113.118 195.626 113.32C195.69 113.522 195.69 113.74 195.626 113.942C195.563 114.144 195.439 114.319 195.273 114.444L193.893 115.479C193.779 115.565 193.693 115.686 193.649 115.825C193.606 115.964 193.606 116.114 193.65 116.253L194.177 117.927C194.243 118.129 194.244 118.347 194.18 118.55C194.116 118.752 193.991 118.928 193.823 119.051C193.657 119.177 193.457 119.246 193.251 119.247Z" fill="#178DC8"/>
<path d="M198.522 115.9C198.911 115.618 199.236 115.251 199.474 114.825C199.711 114.399 199.855 113.925 199.896 113.435C199.937 112.946 199.873 112.453 199.709 111.992C199.545 111.53 199.286 111.112 198.948 110.765L201.303 81.3978L194.291 82.3939L194.157 110.927C193.631 111.551 193.345 112.352 193.353 113.18C193.361 114.007 193.662 114.802 194.2 115.415C194.738 116.028 195.475 116.416 196.272 116.505C197.068 116.595 197.869 116.379 198.522 115.9Z" fill="#A0616A"/>
<path d="M201.762 85.6266C201.63 85.6266 201.5 85.607 201.374 85.5685L193.845 83.2824C193.664 83.2274 193.496 83.1343 193.352 83.009C193.207 82.8836 193.09 82.7286 193.007 82.5539C192.923 82.3792 192.876 82.1886 192.868 81.994C192.859 81.7994 192.89 81.6052 192.958 81.4236L195.744 73.9922C195.861 73.6783 196.082 73.4181 196.369 73.2589C196.655 73.0997 196.988 73.0523 197.306 73.1252L202.279 74.2415C202.59 74.3113 202.867 74.4909 203.063 74.7491C203.259 75.0073 203.361 75.3281 203.353 75.6561L203.121 84.257C203.111 84.6229 202.964 84.9705 202.71 85.2261C202.456 85.4818 202.116 85.6254 201.762 85.6266Z" fill="#CCCCCC"/>
<path d="M130.901 122.324H2.12107C1.55872 122.323 1.01959 122.092 0.621944 121.682C0.224303 121.271 0.000631178 120.715 0 120.134V80.4022C0.000631178 79.8216 0.224303 79.265 0.621944 78.8544C1.01959 78.4439 1.55872 78.2129 2.12107 78.2123H130.901C131.463 78.2129 132.002 78.4439 132.4 78.8544C132.797 79.265 133.021 79.8216 133.022 80.4022V120.134C133.021 120.715 132.797 121.271 132.4 121.682C132.002 122.092 131.463 122.323 130.901 122.324ZM2.12107 78.838C1.7194 78.8385 1.33431 79.0034 1.05029 79.2967C0.766259 79.5899 0.606486 79.9875 0.606021 80.4022V120.134C0.606486 120.549 0.766259 120.946 1.05029 121.24C1.33431 121.533 1.7194 121.698 2.12107 121.698H130.901C131.302 121.698 131.687 121.533 131.971 121.24C132.255 120.946 132.415 120.549 132.416 120.134V80.4022C132.415 79.9875 132.255 79.5899 131.971 79.2967C131.687 79.0034 131.302 78.8385 130.901 78.838H2.12107Z" fill="#3F3D56"/>
<path d="M58.4735 139.054C58.2211 139.053 57.9755 138.969 57.7724 138.814L56.0827 137.547C55.9425 137.441 55.7734 137.384 55.5998 137.384C55.4262 137.384 55.257 137.441 55.1169 137.547L53.4271 138.814C53.2234 138.967 52.9779 139.049 52.726 139.049C52.4742 139.049 52.2287 138.967 52.0249 138.814C51.8211 138.661 51.6695 138.446 51.5916 138.198C51.5137 137.951 51.5137 137.685 51.5915 137.437L52.2369 135.386C52.2909 135.216 52.2911 135.032 52.2374 134.862C52.1838 134.691 52.0791 134.543 51.9385 134.438L50.2488 133.17C50.045 133.017 49.8933 132.802 49.8155 132.555C49.7376 132.307 49.7376 132.041 49.8155 131.793C49.8933 131.546 50.045 131.331 50.2488 131.178C50.4526 131.025 50.698 130.942 50.9499 130.942H53.0385C53.2121 130.943 53.3813 130.886 53.5217 130.781C53.6621 130.676 53.7666 130.527 53.8199 130.356L54.4652 128.306C54.5431 128.058 54.6948 127.843 54.8986 127.69C55.1024 127.537 55.3478 127.454 55.5997 127.454C55.8517 127.454 56.0971 127.537 56.3009 127.69C56.5047 127.843 56.6564 128.058 56.7342 128.306L57.3796 130.356C57.4329 130.527 57.5373 130.676 57.6778 130.781C57.8182 130.886 57.9874 130.943 58.161 130.942H60.2496C60.5015 130.942 60.7469 131.025 60.9507 131.178C61.1545 131.331 61.3062 131.546 61.384 131.793C61.4618 132.041 61.4618 132.307 61.384 132.555C61.3062 132.802 61.1545 133.017 60.9507 133.17L59.261 134.438C59.1204 134.543 59.0157 134.691 58.962 134.862C58.9084 135.032 58.9086 135.216 58.9625 135.386L59.608 137.437C59.6887 137.684 59.6901 137.952 59.612 138.2C59.534 138.448 59.3806 138.663 59.1746 138.814C58.9715 138.969 58.7259 139.053 58.4735 139.054Z" fill="#178DC8"/>
<path d="M75.596 139.054C75.3436 139.053 75.098 138.969 74.8948 138.814L73.2051 137.547C73.0649 137.441 72.8958 137.384 72.7222 137.384C72.5486 137.384 72.3795 137.441 72.2393 137.547L70.5496 138.814C70.3458 138.967 70.1004 139.049 69.8485 139.049C69.5966 139.049 69.3512 138.967 69.1474 138.814C68.9436 138.661 68.7919 138.446 68.7141 138.198C68.6362 137.951 68.6362 137.685 68.714 137.437L69.3594 135.386C69.4134 135.216 69.4135 135.032 69.3599 134.862C69.3063 134.691 69.2016 134.543 69.061 134.438L67.3713 133.17C67.1675 133.017 67.0158 132.802 66.938 132.555C66.8602 132.307 66.8602 132.041 66.938 131.793C67.0159 131.546 67.1676 131.331 67.3713 131.178C67.5751 131.025 67.8205 130.942 68.0724 130.942H70.161C70.3346 130.943 70.5038 130.886 70.6442 130.781C70.7846 130.676 70.889 130.527 70.9424 130.356L71.5878 128.306C71.6656 128.058 71.8173 127.843 72.0211 127.69C72.2249 127.537 72.4703 127.454 72.7223 127.454C72.9742 127.454 73.2196 127.537 73.4234 127.69C73.6272 127.843 73.7789 128.058 73.8567 128.306L74.5021 130.356C74.5554 130.527 74.6598 130.676 74.8003 130.781C74.9407 130.886 75.1099 130.943 75.2835 130.942H77.3721C77.624 130.942 77.8694 131.025 78.0732 131.178C78.277 131.331 78.4286 131.546 78.5065 131.793C78.5843 132.041 78.5843 132.307 78.5065 132.555C78.4287 132.802 78.277 133.017 78.0732 133.17L76.3835 134.438C76.2429 134.543 76.1382 134.691 76.0845 134.862C76.0309 135.032 76.031 135.216 76.085 135.386L76.7304 137.437C76.8111 137.684 76.8125 137.952 76.7345 138.2C76.6564 138.448 76.503 138.663 76.2971 138.814C76.094 138.969 75.8484 139.053 75.596 139.054Z" fill="#178DC8"/>
<path d="M92.7188 139.054C92.4664 139.053 92.2209 138.969 92.0177 138.814L90.328 137.547C90.1877 137.441 90.0186 137.384 89.8451 137.384C89.6715 137.384 89.5024 137.441 89.3621 137.547L87.6724 138.814C87.4686 138.967 87.2232 139.049 86.9713 139.049C86.7194 139.049 86.474 138.967 86.2702 138.814C86.0664 138.661 85.9148 138.446 85.8369 138.198C85.7591 137.951 85.759 137.685 85.8369 137.437L86.4822 135.386C86.5362 135.216 86.5364 135.032 86.4827 134.862C86.4291 134.691 86.3244 134.543 86.1838 134.438L84.4941 133.17C84.2903 133.017 84.1386 132.802 84.0608 132.555C83.983 132.307 83.983 132.041 84.0608 131.793C84.1387 131.546 84.2904 131.331 84.4941 131.178C84.6979 131.025 84.9433 130.942 85.1952 130.942H87.2838C87.4574 130.943 87.6266 130.886 87.767 130.781C87.9074 130.676 88.0118 130.527 88.0652 130.356L88.7106 128.306C88.7884 128.058 88.9401 127.843 89.1439 127.69C89.3477 127.537 89.5931 127.454 89.8451 127.454C90.097 127.454 90.3424 127.537 90.5462 127.69C90.75 127.843 90.9017 128.058 90.9795 128.306L91.6249 130.356C91.6783 130.527 91.7827 130.676 91.9231 130.781C92.0636 130.886 92.2328 130.943 92.4063 130.942H94.4949C94.7468 130.942 94.9922 131.025 95.196 131.178C95.3998 131.331 95.5514 131.546 95.6293 131.793C95.7071 132.041 95.7071 132.307 95.6293 132.555C95.5515 132.802 95.3998 133.017 95.196 133.17L93.5063 134.438C93.3657 134.543 93.261 134.691 93.2074 134.862C93.1538 135.032 93.1539 135.216 93.2079 135.386L93.8532 137.437C93.9339 137.684 93.9353 137.952 93.8573 138.2C93.7793 138.448 93.6259 138.663 93.42 138.814C93.2168 138.969 92.9712 139.053 92.7188 139.054Z" fill="#178DC8"/>
<path d="M109.841 139.054C109.589 139.053 109.343 138.969 109.14 138.814L107.451 137.547C107.31 137.441 107.141 137.384 106.968 137.384C106.794 137.384 106.625 137.441 106.485 137.547L104.795 138.814C104.591 138.967 104.346 139.049 104.094 139.049C103.842 139.049 103.597 138.967 103.393 138.814C103.189 138.661 103.037 138.446 102.96 138.198C102.882 137.951 102.882 137.685 102.959 137.437L103.605 135.386C103.659 135.216 103.659 135.032 103.605 134.862C103.552 134.692 103.447 134.543 103.306 134.438L101.617 133.17C101.413 133.017 101.261 132.802 101.183 132.555C101.106 132.307 101.106 132.041 101.183 131.793C101.261 131.546 101.413 131.331 101.617 131.178C101.82 131.025 102.066 130.943 102.318 130.942H104.406C104.58 130.943 104.749 130.886 104.89 130.781C105.03 130.676 105.134 130.527 105.188 130.356L105.833 128.306C105.911 128.058 106.063 127.843 106.266 127.69C106.47 127.537 106.716 127.454 106.968 127.454C107.22 127.454 107.465 127.537 107.669 127.69C107.873 127.843 108.024 128.058 108.102 128.306L108.748 130.356C108.801 130.527 108.905 130.676 109.046 130.781C109.186 130.886 109.355 130.943 109.529 130.942H111.617C111.869 130.943 112.115 131.025 112.319 131.178C112.522 131.331 112.674 131.546 112.752 131.793C112.83 132.041 112.83 132.307 112.752 132.555C112.674 132.802 112.522 133.017 112.319 133.17L110.629 134.438C110.488 134.543 110.384 134.691 110.33 134.862C110.276 135.032 110.277 135.216 110.33 135.386L110.976 137.437C111.057 137.684 111.058 137.952 110.98 138.2C110.902 138.448 110.749 138.663 110.543 138.814C110.339 138.969 110.094 139.053 109.841 139.054Z" fill="#178DC8"/>
<path d="M121.216 139.175C120.939 139.174 120.67 139.082 120.446 138.912C120.22 138.746 120.052 138.51 119.966 138.237C119.88 137.965 119.882 137.671 119.97 137.4L120.616 135.349C120.662 135.203 120.662 135.045 120.616 134.899C120.57 134.753 120.481 134.626 120.36 134.536L118.67 133.268C118.446 133.1 118.28 132.864 118.194 132.592C118.109 132.32 118.109 132.028 118.194 131.756C118.28 131.484 118.446 131.247 118.67 131.08C118.894 130.912 119.164 130.821 119.44 130.821H121.529C121.678 130.821 121.823 130.773 121.943 130.683C122.064 130.592 122.153 130.465 122.199 130.319L122.844 128.268C122.93 127.996 123.096 127.76 123.32 127.592C123.544 127.424 123.814 127.333 124.09 127.333C124.367 127.333 124.637 127.424 124.86 127.592C125.084 127.76 125.251 127.996 125.336 128.268L125.982 130.319C126.028 130.465 126.117 130.592 126.237 130.683C126.358 130.773 126.503 130.821 126.652 130.821H128.74C129.017 130.821 129.286 130.912 129.51 131.08C129.734 131.247 129.901 131.484 129.986 131.756C130.072 132.028 130.072 132.32 129.986 132.592C129.901 132.864 129.734 133.1 129.51 133.268L127.821 134.536C127.7 134.626 127.61 134.753 127.564 134.899C127.518 135.045 127.518 135.203 127.565 135.349L128.21 137.4C128.296 137.671 128.296 137.964 128.21 138.236C128.125 138.507 127.958 138.744 127.734 138.912C127.51 139.08 127.241 139.17 126.964 139.17C126.687 139.17 126.418 139.08 126.194 138.912L124.504 137.645C124.384 137.554 124.239 137.505 124.09 137.505C123.941 137.505 123.797 137.554 123.676 137.645L121.987 138.912C121.763 139.082 121.494 139.174 121.216 139.175ZM124.09 136.879C124.367 136.879 124.637 136.97 124.86 137.138L126.55 138.406C126.67 138.496 126.815 138.545 126.964 138.545C127.113 138.545 127.258 138.496 127.378 138.406C127.498 138.316 127.588 138.188 127.634 138.042C127.68 137.896 127.68 137.739 127.634 137.593L126.988 135.542C126.902 135.271 126.902 134.978 126.988 134.706C127.073 134.434 127.24 134.197 127.464 134.03L129.154 132.762C129.274 132.672 129.364 132.545 129.41 132.399C129.456 132.253 129.456 132.095 129.41 131.949C129.364 131.803 129.274 131.676 129.154 131.586C129.034 131.496 128.889 131.447 128.74 131.447H126.651C126.375 131.447 126.105 131.357 125.881 131.189C125.657 131.021 125.49 130.784 125.405 130.512L124.76 128.461C124.714 128.315 124.624 128.188 124.504 128.098C124.384 128.008 124.239 127.959 124.09 127.959C123.941 127.959 123.797 128.008 123.676 128.098C123.556 128.188 123.466 128.315 123.42 128.461L122.775 130.512C122.69 130.784 122.523 131.021 122.3 131.189C122.076 131.357 121.806 131.447 121.529 131.447H119.44C119.292 131.447 119.147 131.495 119.026 131.586C118.906 131.676 118.817 131.803 118.771 131.949C118.725 132.095 118.725 132.253 118.771 132.399C118.817 132.545 118.906 132.672 119.026 132.762L120.716 134.03C120.94 134.197 121.107 134.434 121.193 134.706C121.278 134.978 121.278 135.271 121.192 135.542L120.547 137.593C120.501 137.739 120.501 137.896 120.547 138.042C120.593 138.188 120.682 138.316 120.803 138.406C120.923 138.496 121.068 138.545 121.216 138.545C121.365 138.545 121.51 138.496 121.63 138.406L123.32 137.138C123.544 136.97 123.813 136.879 124.09 136.879Z" fill="#3F3D56"/>
<path d="M16.6656 87.5978C16.1433 87.5978 15.6423 87.812 15.2729 88.1934C14.9035 88.5747 14.696 89.092 14.696 89.6313C14.696 90.1706 14.9035 90.6879 15.2729 91.0692C15.6423 91.4506 16.1433 91.6648 16.6656 91.6648H116.356C116.878 91.6648 117.379 91.4506 117.749 91.0692C118.118 90.6879 118.326 90.1706 118.326 89.6313C118.326 89.092 118.118 88.5747 117.749 88.1934C117.379 87.812 116.878 87.5978 116.356 87.5978H16.6656Z" fill="#CCCCCC"/>
<path d="M16.6656 98.2346C16.1433 98.2346 15.6423 98.4489 15.2729 98.8302C14.9035 99.2116 14.696 99.7288 14.696 100.268C14.696 100.807 14.9035 101.325 15.2729 101.706C15.6423 102.087 16.1433 102.302 16.6656 102.302H116.356C116.878 102.302 117.379 102.087 117.749 101.706C118.118 101.325 118.326 100.807 118.326 100.268C118.326 99.7288 118.118 99.2116 117.749 98.8302C117.379 98.4489 116.878 98.2346 116.356 98.2346H16.6656Z" fill="#CCCCCC"/>
<path d="M16.6656 108.872C16.1433 108.872 15.6423 109.086 15.2729 109.467C14.9035 109.848 14.696 110.366 14.696 110.905C14.696 111.444 14.9035 111.962 15.2729 112.343C15.6423 112.724 16.1433 112.939 16.6656 112.939H116.356C116.878 112.939 117.379 112.724 117.749 112.343C118.118 111.962 118.326 111.444 118.326 110.905C118.326 110.366 118.118 109.848 117.749 109.467C117.379 109.086 116.878 108.872 116.356 108.872H16.6656Z" fill="#CCCCCC"/>
<path d="M16.6656 87.5978C16.1433 87.5978 15.6423 87.812 15.2729 88.1934C14.9035 88.5747 14.696 89.092 14.696 89.6313C14.696 90.1706 14.9035 90.6879 15.2729 91.0692C15.6423 91.4506 16.1433 91.6648 16.6656 91.6648H116.356C116.878 91.6648 117.379 91.4506 117.749 91.0692C118.118 90.6879 118.326 90.1706 118.326 89.6313C118.326 89.092 118.118 88.5747 117.749 88.1934C117.379 87.812 116.878 87.5978 116.356 87.5978H16.6656Z" fill="#CCCCCC"/>
<path d="M16.6656 98.2346C16.1433 98.2346 15.6423 98.4489 15.2729 98.8302C14.9035 99.2116 14.696 99.7288 14.696 100.268C14.696 100.807 14.9035 101.325 15.2729 101.706C15.6423 102.087 16.1433 102.302 16.6656 102.302H116.356C116.878 102.302 117.379 102.087 117.749 101.706C118.118 101.325 118.326 100.807 118.326 100.268C118.326 99.7288 118.118 99.2116 117.749 98.8302C117.379 98.4489 116.878 98.2346 116.356 98.2346H16.6656Z" fill="#CCCCCC"/>
<path d="M16.6656 108.872C16.1433 108.872 15.6423 109.086 15.2729 109.467C14.9035 109.848 14.696 110.366 14.696 110.905C14.696 111.444 14.9035 111.962 15.2729 112.343C15.6423 112.724 16.1433 112.939 16.6656 112.939H116.356C116.878 112.939 117.379 112.724 117.749 112.343C118.118 111.962 118.326 111.444 118.326 110.905C118.326 110.366 118.118 109.848 117.749 109.467C117.379 109.086 116.878 108.872 116.356 108.872H16.6656Z" fill="#CCCCCC"/>
<path d="M130.901 44.1117H2.12107C1.55872 44.1111 1.01959 43.8801 0.621944 43.4696C0.224303 43.059 0.000631178 42.5024 0 41.9218V2.18994C0.000631178 1.60933 0.224303 1.05269 0.621944 0.642139C1.01959 0.231586 1.55872 0.000651672 2.12107 0H130.901C131.463 0.000650846 132.002 0.231586 132.4 0.642139C132.797 1.05269 133.021 1.60933 133.022 2.18994V41.9218C133.021 42.5024 132.797 43.059 132.4 43.4696C132.002 43.8801 131.463 44.1111 130.901 44.1117ZM2.12107 0.625698C1.7194 0.626179 1.33431 0.791135 1.05029 1.08438C0.766259 1.37763 0.606486 1.77523 0.606021 2.18994V41.9218C0.606486 42.3365 0.766259 42.7341 1.05029 43.0273C1.33431 43.3206 1.7194 43.4855 2.12107 43.486H130.901C131.302 43.4856 131.687 43.3206 131.971 43.0274C132.255 42.7341 132.415 42.3365 132.416 41.9218V2.18994C132.415 1.77523 132.255 1.37763 131.971 1.08438C131.687 0.791129 131.302 0.626172 130.901 0.625698H2.12107Z" fill="#3F3D56"/>
<path d="M58.4735 60.8414C58.2211 60.8403 57.9755 60.7564 57.7724 60.6016L56.0827 59.3342C55.9425 59.2284 55.7734 59.1715 55.5998 59.1715C55.4262 59.1715 55.257 59.2284 55.1169 59.3342L53.4271 60.6016C53.2234 60.7545 52.9779 60.8368 52.726 60.8368C52.4742 60.8369 52.2287 60.7545 52.0249 60.6017C51.8211 60.4488 51.6695 60.2333 51.5916 59.986C51.5137 59.7387 51.5137 59.4722 51.5915 59.2249L52.2369 57.174C52.2909 57.0037 52.2911 56.82 52.2374 56.6495C52.1838 56.4791 52.0791 56.3306 51.9385 56.2254L50.2488 54.958C50.045 54.8051 49.8933 54.5896 49.8155 54.3422C49.7376 54.0949 49.7376 53.8284 49.8155 53.5811C49.8933 53.3337 50.045 53.1182 50.2488 52.9653C50.4526 52.8124 50.698 52.7301 50.9499 52.7301H53.0385C53.2121 52.7304 53.3813 52.6738 53.5217 52.5685C53.6621 52.4632 53.7666 52.3145 53.8199 52.144L54.4652 50.0932C54.5431 49.8458 54.6948 49.6302 54.8986 49.4773C55.1024 49.3244 55.3478 49.2421 55.5997 49.2421C55.8517 49.2421 56.0971 49.3244 56.3009 49.4773C56.5047 49.6302 56.6564 49.8458 56.7342 50.0932L57.3796 52.144C57.4329 52.3145 57.5373 52.4632 57.6778 52.5685C57.8182 52.6738 57.9874 52.7304 58.161 52.7301H60.2496C60.5015 52.7301 60.7469 52.8125 60.9507 52.9653C61.1545 53.1182 61.3062 53.3337 61.384 53.5811C61.4618 53.8284 61.4618 54.0949 61.384 54.3422C61.3062 54.5896 61.1545 54.8051 60.9507 54.958L59.261 56.2254C59.1204 56.3306 59.0157 56.4791 58.962 56.6495C58.9084 56.82 58.9086 57.0037 58.9625 57.174L59.608 59.2249C59.6887 59.472 59.6901 59.7393 59.612 59.9873C59.534 60.2353 59.3806 60.4507 59.1746 60.6016C58.9715 60.7563 58.7259 60.8403 58.4735 60.8414Z" fill="#178DC8"/>
<path d="M75.596 60.8414C75.3436 60.8403 75.098 60.7564 74.8948 60.6016L73.2051 59.3342C73.0649 59.2284 72.8958 59.1715 72.7222 59.1715C72.5486 59.1715 72.3795 59.2284 72.2393 59.3342L70.5496 60.6016C70.3458 60.7545 70.1004 60.8368 69.8485 60.8369C69.5966 60.8369 69.3512 60.7545 69.1474 60.6017C68.9436 60.4488 68.7919 60.2333 68.7141 59.986C68.6362 59.7387 68.6362 59.4722 68.714 59.2249L69.3594 57.174C69.4134 57.0037 69.4135 56.82 69.3599 56.6495C69.3063 56.4791 69.2016 56.3306 69.061 56.2254L67.3713 54.958C67.1675 54.8051 67.0158 54.5895 66.938 54.3422C66.8602 54.0948 66.8602 53.8284 66.938 53.5811C67.0159 53.3337 67.1676 53.1182 67.3713 52.9653C67.5751 52.8124 67.8205 52.7301 68.0724 52.7301H70.161C70.3346 52.7304 70.5038 52.6738 70.6442 52.5685C70.7846 52.4632 70.889 52.3145 70.9424 52.144L71.5878 50.0932C71.6656 49.8458 71.8173 49.6302 72.0211 49.4773C72.2249 49.3244 72.4703 49.2421 72.7223 49.2421C72.9742 49.2421 73.2196 49.3244 73.4234 49.4773C73.6272 49.6302 73.7789 49.8458 73.8567 50.0932L74.5021 52.144C74.5554 52.3145 74.6598 52.4632 74.8003 52.5685C74.9407 52.6739 75.1099 52.7304 75.2835 52.7301H77.3721C77.624 52.7301 77.8694 52.8124 78.0732 52.9653C78.277 53.1182 78.4286 53.3337 78.5065 53.5811C78.5843 53.8284 78.5843 54.0948 78.5065 54.3422C78.4287 54.5895 78.277 54.8051 78.0732 54.958L76.3835 56.2254C76.2429 56.3305 76.1382 56.479 76.0845 56.6495C76.0309 56.82 76.031 57.0037 76.085 57.174L76.7304 59.2249C76.8111 59.472 76.8125 59.7393 76.7345 59.9873C76.6564 60.2353 76.503 60.4507 76.2971 60.6016C76.094 60.7563 75.8484 60.8403 75.596 60.8414Z" fill="#178DC8"/>
<path d="M92.7188 60.8414C92.4664 60.8403 92.2209 60.7563 92.0177 60.6016L90.328 59.3342C90.1877 59.2287 90.0186 59.1719 89.8451 59.1719C89.6715 59.1719 89.5024 59.2287 89.3621 59.3342L87.6724 60.6016C87.4686 60.7545 87.2232 60.8368 86.9713 60.8369C86.7194 60.8369 86.474 60.7545 86.2702 60.6017C86.0664 60.4488 85.9148 60.2333 85.8369 59.986C85.7591 59.7386 85.759 59.4722 85.8369 59.2249L86.4822 57.174C86.5362 57.0037 86.5364 56.82 86.4827 56.6495C86.4291 56.4791 86.3244 56.3306 86.1838 56.2254L84.4941 54.958C84.2903 54.8051 84.1386 54.5895 84.0608 54.3422C83.983 54.0948 83.983 53.8284 84.0608 53.5811C84.1387 53.3337 84.2904 53.1182 84.4941 52.9653C84.6979 52.8124 84.9433 52.7301 85.1952 52.7301H87.2838C87.4574 52.7304 87.6266 52.6738 87.767 52.5685C87.9074 52.4632 88.0118 52.3145 88.0652 52.144L88.7106 50.0932C88.7884 49.8458 88.9401 49.6302 89.1439 49.4773C89.3477 49.3244 89.5931 49.2421 89.8451 49.2421C90.097 49.2421 90.3424 49.3244 90.5462 49.4773C90.75 49.6302 90.9017 49.8458 90.9795 50.0932L91.6249 52.144C91.6783 52.3145 91.7827 52.4632 91.9231 52.5685C92.0636 52.6738 92.2328 52.7304 92.4063 52.7301H94.4949C94.7468 52.7301 94.9922 52.8124 95.196 52.9653C95.3998 53.1182 95.5514 53.3337 95.6293 53.5811C95.7071 53.8284 95.7071 54.0948 95.6293 54.3422C95.5515 54.5895 95.3998 54.8051 95.196 54.958L93.5063 56.2254C93.3657 56.3306 93.261 56.4791 93.2074 56.6495C93.1538 56.82 93.1539 57.0037 93.2079 57.174L93.8532 59.2249C93.9339 59.4719 93.9353 59.7393 93.8573 59.9873C93.7793 60.2353 93.6259 60.4507 93.42 60.6016C93.2168 60.7563 92.9712 60.8403 92.7188 60.8414Z" fill="#178DC8"/>
<path d="M121.216 60.963C120.939 60.9618 120.67 60.8697 120.446 60.6999C120.22 60.5341 120.052 60.2974 119.966 60.025C119.88 59.7525 119.882 59.4588 119.97 59.1873L120.616 57.1365C120.662 56.9905 120.662 56.8332 120.616 56.6871C120.57 56.541 120.481 56.4138 120.36 56.3237L118.67 55.0561C118.446 54.8882 118.28 54.6514 118.194 54.3797C118.109 54.108 118.109 53.8153 118.194 53.5436C118.28 53.2719 118.446 53.0352 118.67 52.8672C118.894 52.6993 119.164 52.6089 119.44 52.6089H121.529C121.678 52.6092 121.823 52.5607 121.943 52.4704C122.064 52.3801 122.153 52.2527 122.199 52.1065L122.844 50.0557C122.93 49.784 123.096 49.5472 123.32 49.3793C123.544 49.2114 123.814 49.121 124.09 49.121C124.367 49.121 124.637 49.2114 124.86 49.3793C125.084 49.5472 125.251 49.784 125.336 50.0557L125.982 52.1065C126.028 52.2527 126.117 52.3801 126.237 52.4704C126.358 52.5607 126.503 52.6092 126.652 52.6089H128.74C129.017 52.6089 129.286 52.6994 129.51 52.8673C129.734 53.0352 129.901 53.272 129.986 53.5437C130.072 53.8153 130.072 54.108 129.986 54.3797C129.901 54.6514 129.734 54.8882 129.51 55.0561L127.821 56.3237C127.7 56.4137 127.61 56.541 127.564 56.687C127.518 56.8331 127.518 56.9905 127.565 57.1365L128.21 59.1873C128.296 59.459 128.296 59.7517 128.21 60.0234C128.125 60.2951 127.958 60.5318 127.734 60.6998C127.51 60.8677 127.241 60.9581 126.964 60.9581C126.687 60.9581 126.418 60.8677 126.194 60.6998L124.504 59.4323C124.384 59.3418 124.239 59.293 124.09 59.293C123.941 59.293 123.797 59.3418 123.676 59.4323L121.987 60.6998C121.763 60.8697 121.494 60.9619 121.216 60.963ZM124.09 58.667C124.367 58.6671 124.637 58.7578 124.86 58.9261L126.55 60.1935C126.67 60.2838 126.815 60.3325 126.964 60.3325C127.113 60.3325 127.258 60.2839 127.378 60.1937C127.498 60.1034 127.588 59.9762 127.634 59.8301C127.68 59.6841 127.68 59.5267 127.634 59.3807L126.988 57.3299C126.902 57.0583 126.902 56.7654 126.988 56.4936C127.073 56.2218 127.24 55.985 127.464 55.8175L129.154 54.5499C129.274 54.4596 129.364 54.3324 129.41 54.1864C129.456 54.0403 129.456 53.883 129.41 53.737C129.364 53.591 129.274 53.4637 129.154 53.3735C129.034 53.2832 128.889 53.2346 128.74 53.2346H126.651C126.375 53.2352 126.105 53.1449 125.881 52.9769C125.657 52.8089 125.49 52.5719 125.405 52.2999L124.76 50.2491C124.714 50.1031 124.624 49.9758 124.504 49.8855C124.384 49.7953 124.239 49.7467 124.09 49.7467C123.941 49.7467 123.797 49.7953 123.676 49.8855C123.556 49.9758 123.466 50.1031 123.42 50.2491L122.775 52.2999C122.69 52.5719 122.523 52.809 122.3 52.9769C122.076 53.1449 121.806 53.2352 121.529 53.2346H119.44C119.292 53.2346 119.147 53.2832 119.026 53.3735C118.906 53.4637 118.817 53.591 118.771 53.737C118.725 53.883 118.725 54.0403 118.771 54.1863C118.817 54.3324 118.906 54.4596 119.026 54.5499L120.716 55.8175C120.94 55.9851 121.107 56.2218 121.193 56.4936C121.278 56.7654 121.278 57.0583 121.192 57.3299L120.547 59.3807C120.501 59.5267 120.501 59.684 120.547 59.8301C120.593 59.9761 120.682 60.1033 120.803 60.1936C120.923 60.2838 121.068 60.3324 121.216 60.3324C121.365 60.3324 121.51 60.2838 121.63 60.1935L123.32 58.9261C123.544 58.7578 123.813 58.6671 124.09 58.667Z" fill="#3F3D56"/>
<path d="M103.945 60.9127C103.668 60.9115 103.398 60.8194 103.175 60.6496C102.949 60.4838 102.78 60.2471 102.694 59.9747C102.609 59.7022 102.61 59.4085 102.699 59.137L103.344 57.0862C103.391 56.9402 103.391 56.7828 103.345 56.6368C103.299 56.4907 103.209 56.3635 103.089 56.2734L101.399 55.0058C101.175 54.8379 101.008 54.6011 100.923 54.3294C100.837 54.0577 100.837 53.765 100.923 53.4933C101.008 53.2216 101.175 52.9849 101.399 52.8169C101.623 52.649 101.892 52.5586 102.169 52.5586H104.258C104.406 52.5589 104.551 52.5104 104.672 52.4201C104.792 52.3298 104.882 52.2024 104.927 52.0562L105.573 50.0054C105.658 49.7337 105.825 49.4969 106.049 49.329C106.273 49.1611 106.542 49.0707 106.819 49.0707C107.096 49.0707 107.365 49.1611 107.589 49.329C107.813 49.4969 107.979 49.7337 108.065 50.0054L108.71 52.0562C108.756 52.2024 108.845 52.3298 108.966 52.4201C109.086 52.5104 109.231 52.5589 109.38 52.5586H111.469C111.745 52.5586 112.015 52.6491 112.239 52.817C112.463 52.9849 112.629 53.2217 112.715 53.4934C112.8 53.7651 112.8 54.0577 112.715 54.3294C112.629 54.6011 112.463 54.8379 112.239 55.0058L110.549 56.2734C110.429 56.3634 110.339 56.4907 110.293 56.6367C110.247 56.7828 110.247 56.9402 110.293 57.0862L110.939 59.137C111.024 59.4087 111.024 59.7014 110.939 59.9731C110.853 60.2448 110.686 60.4815 110.463 60.6495C110.239 60.8174 109.969 60.9078 109.692 60.9078C109.416 60.9078 109.146 60.8174 108.922 60.6495L107.233 59.382C107.112 59.2915 106.968 59.2427 106.819 59.2427C106.67 59.2427 106.525 59.2915 106.405 59.382L104.715 60.6495C104.492 60.8194 104.222 60.9116 103.945 60.9127ZM106.819 58.6167C107.096 58.6168 107.365 58.7075 107.589 58.8758L109.278 60.1432C109.399 60.2335 109.544 60.2822 109.692 60.2822C109.841 60.2822 109.986 60.2336 110.106 60.1434C110.227 60.0531 110.316 59.9258 110.362 59.7798C110.408 59.6338 110.408 59.4764 110.362 59.3304L109.717 57.2796C109.631 57.008 109.631 56.7151 109.716 56.4433C109.802 56.1715 109.969 55.9347 110.193 55.7672L111.882 54.4996C112.003 54.4093 112.092 54.2821 112.138 54.136C112.184 53.99 112.184 53.8327 112.138 53.6867C112.092 53.5407 112.003 53.4134 111.882 53.3232C111.762 53.2329 111.617 53.1843 111.469 53.1843H109.38C109.103 53.1848 108.833 53.0946 108.609 52.9266C108.385 52.7586 108.219 52.5216 108.134 52.2496L107.488 50.1988C107.443 50.0528 107.353 49.9255 107.233 49.8352C107.112 49.745 106.967 49.6964 106.819 49.6964C106.67 49.6964 106.525 49.745 106.405 49.8352C106.284 49.9255 106.195 50.0528 106.149 50.1988L105.504 52.2496C105.418 52.5216 105.252 52.7586 105.028 52.9266C104.804 53.0946 104.534 53.1849 104.258 53.1843H102.169C102.02 53.1843 101.875 53.2329 101.755 53.3232C101.635 53.4134 101.545 53.5407 101.499 53.6867C101.453 53.8327 101.453 53.99 101.499 54.136C101.545 54.2821 101.635 54.4093 101.755 54.4996L103.445 55.7672C103.669 55.9347 103.836 56.1715 103.921 56.4433C104.007 56.7151 104.007 57.008 103.921 57.2796L103.275 59.3304C103.229 59.4764 103.229 59.6337 103.275 59.7797C103.321 59.9258 103.411 60.053 103.531 60.1433C103.651 60.2335 103.796 60.2821 103.945 60.2821C104.094 60.2821 104.239 60.2335 104.359 60.1432L106.049 58.8758C106.272 58.7075 106.542 58.6168 106.819 58.6167Z" fill="#3F3D56"/>
<path d="M16.6656 9.3855C16.1433 9.3855 15.6423 9.59974 15.2729 9.9811C14.9035 10.3625 14.696 10.8797 14.696 11.419C14.696 11.9583 14.9035 12.4756 15.2729 12.8569C15.6423 13.2383 16.1433 13.4525 16.6656 13.4525H116.356C116.878 13.4525 117.379 13.2383 117.749 12.8569C118.118 12.4756 118.326 11.9583 118.326 11.419C118.326 10.8797 118.118 10.3625 117.749 9.9811C117.379 9.59974 116.878 9.3855 116.356 9.3855H16.6656Z" fill="#CCCCCC"/>
<path d="M16.6656 20.0223C16.1433 20.0223 15.6423 20.2366 15.2729 20.6179C14.9035 20.9993 14.696 21.5165 14.696 22.0559C14.696 22.5952 14.9035 23.1124 15.2729 23.4938C15.6423 23.8751 16.1433 24.0894 16.6656 24.0894H116.356C116.878 24.0894 117.379 23.8751 117.749 23.4938C118.118 23.1124 118.326 22.5952 118.326 22.0559C118.326 21.5165 118.118 20.9993 117.749 20.6179C117.379 20.2366 116.878 20.0223 116.356 20.0223H16.6656Z" fill="#CCCCCC"/>
<path d="M16.6656 30.6592C16.1433 30.6592 15.6423 30.8734 15.2729 31.2548C14.9035 31.6361 14.696 32.1534 14.696 32.6927C14.696 33.232 14.9035 33.7493 15.2729 34.1306C15.6423 34.512 16.1433 34.7262 16.6656 34.7262H116.356C116.878 34.7262 117.379 34.512 117.749 34.1306C118.118 33.7493 118.326 33.232 118.326 32.6927C118.326 32.1534 118.118 31.6361 117.749 31.2548C117.379 30.8734 116.878 30.6592 116.356 30.6592H16.6656Z" fill="#CCCCCC"/>
<path d="M16.6656 9.3855C16.1433 9.3855 15.6423 9.59974 15.2729 9.9811C14.9035 10.3625 14.696 10.8797 14.696 11.419C14.696 11.9583 14.9035 12.4756 15.2729 12.8569C15.6423 13.2383 16.1433 13.4525 16.6656 13.4525H116.356C116.878 13.4525 117.379 13.2383 117.749 12.8569C118.118 12.4756 118.326 11.9583 118.326 11.419C118.326 10.8797 118.118 10.3625 117.749 9.9811C117.379 9.59974 116.878 9.3855 116.356 9.3855H16.6656Z" fill="#CCCCCC"/>
<path d="M16.6656 20.0223C16.1433 20.0223 15.6423 20.2366 15.2729 20.6179C14.9035 20.9993 14.696 21.5165 14.696 22.0559C14.696 22.5952 14.9035 23.1124 15.2729 23.4938C15.6423 23.8751 16.1433 24.0894 16.6656 24.0894H116.356C116.878 24.0894 117.379 23.8751 117.749 23.4938C118.118 23.1124 118.326 22.5952 118.326 22.0559C118.326 21.5165 118.118 20.9993 117.749 20.6179C117.379 20.2366 116.878 20.0223 116.356 20.0223H16.6656Z" fill="#CCCCCC"/>
<path d="M16.6656 30.6592C16.1433 30.6592 15.6423 30.8734 15.2729 31.2548C14.9035 31.6361 14.696 32.1534 14.696 32.6927C14.696 33.232 14.9035 33.7493 15.2729 34.1306C15.6423 34.512 16.1433 34.7262 16.6656 34.7262H116.356C116.878 34.7262 117.379 34.512 117.749 34.1306C118.118 33.7493 118.326 33.232 118.326 32.6927C118.326 32.1534 118.118 31.6361 117.749 31.2548C117.379 30.8734 116.878 30.6592 116.356 30.6592H16.6656Z" fill="#CCCCCC"/>
</g>
<defs>
<clipPath id="clip0_42_198">
<rect width="243" height="168" fill="white"/>
</clipPath>
</defs>
</svg>
