<svg width="186" height="209" viewBox="0 0 186 209" fill="none" xmlns="http://www.w3.org/2000/svg">
<g clip-path="url(#clip0_42_34)">
<path d="M103.942 49.6662H102.796V18.2075C102.796 13.3786 100.883 8.74742 97.4773 5.33286C94.0717 1.91829 89.4526 6.09315e-06 84.6363 0H18.1601C15.7753 -6.03394e-06 13.4138 0.470938 11.2105 1.38594C9.00726 2.30095 7.00531 3.64209 5.31899 5.33281C3.63267 7.02352 2.295 9.0307 1.38237 11.2397C0.469734 13.4488 5.266e-06 15.8164 0 18.2074V190.793C-2.25685e-06 193.184 0.469714 195.551 1.38234 197.76C2.29497 199.969 3.63263 201.976 5.31895 203.667C7.00527 205.358 9.00722 206.699 11.2105 207.614C13.4138 208.529 15.7752 209 18.1601 209H84.6362C89.4525 209 94.0716 207.082 97.4773 203.667C100.883 200.253 102.796 195.622 102.796 190.793V72.0591H103.942V49.6662Z" fill="#E6E6E6"/>
<path d="M85.369 4.73696H76.6917C77.0907 5.71785 77.243 6.78208 77.1352 7.8359C77.0274 8.88971 76.6627 9.90078 76.0734 10.78C75.484 11.6593 74.6881 12.3797 73.7556 12.8778C72.8231 13.376 71.7828 13.6366 70.7262 13.6367H32.6429C31.5863 13.6366 30.5459 13.376 29.6134 12.8778C28.681 12.3797 27.885 11.6593 27.2956 10.78C26.7063 9.90077 26.3416 8.8897 26.2338 7.83588C26.126 6.78206 26.2783 5.71783 26.6774 4.73694H18.5727C14.9759 4.73694 11.5265 6.16948 8.98314 8.71944C6.43982 11.2694 5.01099 14.7279 5.01099 18.3341V190.666C5.01098 194.272 6.4398 197.731 8.98312 200.281C11.5264 202.831 14.9759 204.263 18.5727 204.263H85.369C87.1499 204.263 88.9135 203.911 90.5588 203.228C92.2042 202.545 93.6993 201.543 94.9586 200.281C96.2179 199.018 97.2169 197.519 97.8984 195.869C98.5799 194.22 98.9307 192.452 98.9307 190.666V18.3341C98.9307 16.5485 98.5799 14.7804 97.8984 13.1307C97.2169 11.481 96.2179 9.98206 94.9586 8.71945C93.6993 7.45684 92.2042 6.45529 90.5588 5.77197C88.9134 5.08866 87.1499 4.73696 85.369 4.73696Z" fill="white"/>
<path d="M93.4188 140.09H13.3281C12.9349 140.089 12.5579 139.932 12.2799 139.654C12.0018 139.375 11.8454 138.997 11.845 138.603V118.684C11.8454 118.29 12.0018 117.912 12.2799 117.633C12.5579 117.354 12.9349 117.197 13.3281 117.197H93.4188C93.812 117.197 94.189 117.354 94.467 117.633C94.7451 117.912 94.9015 118.29 94.9019 118.684V138.603C94.9014 138.997 94.745 139.375 94.4669 139.654C94.1889 139.932 93.812 140.089 93.4188 140.09ZM13.3281 117.792C13.0921 117.792 12.8659 117.886 12.6991 118.053C12.5322 118.22 12.4384 118.447 12.4382 118.684V138.603C12.4384 138.839 12.5322 139.066 12.6991 139.234C12.8659 139.401 13.0921 139.495 13.3281 139.495H93.4188C93.6548 139.495 93.881 139.401 94.0478 139.234C94.2147 139.066 94.3085 138.839 94.3087 138.603V118.684C94.3085 118.447 94.2147 118.22 94.0478 118.053C93.881 117.886 93.6548 117.792 93.4188 117.792H13.3281Z" fill="#E6E6E6"/>
<path d="M23.7099 134.889C27.1503 134.889 29.9392 132.092 29.9392 128.643C29.9392 125.194 27.1503 122.398 23.7099 122.398C20.2696 122.398 17.4807 125.194 17.4807 128.643C17.4807 132.092 20.2696 134.889 23.7099 134.889Z" fill="#E6E6E6"/>
<path d="M38.0967 124.48C37.8244 124.484 37.5647 124.596 37.3737 124.791C37.1827 124.985 37.0757 125.247 37.0757 125.521C37.0757 125.794 37.1827 126.056 37.3737 126.25C37.5647 126.445 37.8244 126.557 38.0967 126.561H87.041C87.3163 126.567 87.5825 126.462 87.7809 126.271C87.9794 126.079 88.0938 125.817 88.0991 125.541C88.1044 125.265 88.0002 124.998 87.8092 124.799C87.6183 124.6 87.3564 124.485 87.081 124.48L87.0751 124.48C87.0637 124.479 87.0524 124.479 87.041 124.48H38.0967Z" fill="#E6E6E6"/>
<path d="M38.0967 130.725C37.8244 130.73 37.5647 130.841 37.3737 131.036C37.1827 131.231 37.0757 131.493 37.0757 131.766C37.0757 132.039 37.1827 132.301 37.3737 132.496C37.5647 132.691 37.8244 132.802 38.0967 132.807H87.041C87.3159 132.811 87.5811 132.705 87.7784 132.513C87.9757 132.321 88.089 132.059 88.0936 131.783C88.0981 131.507 87.9934 131.241 87.8024 131.043C87.6115 130.845 87.3499 130.73 87.0751 130.725C87.0637 130.725 87.0523 130.725 87.041 130.725H38.0967Z" fill="#E6E6E6"/>
<path d="M93.4188 173.399H13.3281C12.9349 173.399 12.5579 173.242 12.2799 172.963C12.0018 172.684 11.8454 172.306 11.845 171.912V151.993C11.8454 151.599 12.0018 151.221 12.2799 150.942C12.5579 150.664 12.9349 150.507 13.3281 150.506H93.4188C93.812 150.507 94.189 150.664 94.467 150.942C94.7451 151.221 94.9015 151.599 94.9019 151.993V171.912C94.9014 172.307 94.745 172.684 94.4669 172.963C94.1889 173.242 93.812 173.399 93.4188 173.399ZM13.3281 151.101C13.0921 151.101 12.8659 151.195 12.6991 151.363C12.5322 151.53 12.4384 151.757 12.4382 151.993V171.912C12.4384 172.149 12.5322 172.376 12.6991 172.543C12.8659 172.71 13.0921 172.804 13.3281 172.805H93.4188C93.6548 172.804 93.881 172.71 94.0478 172.543C94.2147 172.376 94.3085 172.149 94.3087 171.912V151.993C94.3085 151.757 94.2147 151.53 94.0478 151.363C93.881 151.195 93.6548 151.101 93.4188 151.101H13.3281Z" fill="#E6E6E6"/>
<path d="M23.7099 168.198C27.1503 168.198 29.9392 165.402 29.9392 161.953C29.9392 158.503 27.1503 155.707 23.7099 155.707C20.2696 155.707 17.4807 158.503 17.4807 161.953C17.4807 165.402 20.2696 168.198 23.7099 168.198Z" fill="#E6E6E6"/>
<path d="M38.0967 157.789C37.8244 157.794 37.5647 157.905 37.3737 158.1C37.1827 158.295 37.0757 158.557 37.0757 158.83C37.0757 159.103 37.1827 159.365 37.3737 159.56C37.5647 159.755 37.8244 159.866 38.0967 159.871H87.041C87.3159 159.875 87.5811 159.769 87.7784 159.577C87.9757 159.385 88.089 159.123 88.0936 158.847C88.0981 158.571 87.9934 158.305 87.8024 158.107C87.6115 157.909 87.3499 157.794 87.0751 157.789C87.0637 157.789 87.0523 157.789 87.041 157.789H38.0967Z" fill="#E6E6E6"/>
<path d="M38.0967 164.035C37.8244 164.039 37.5647 164.151 37.3737 164.345C37.1827 164.54 37.0757 164.802 37.0757 165.075C37.0757 165.349 37.1827 165.611 37.3737 165.805C37.5647 166 37.8244 166.112 38.0967 166.116H87.041C87.3159 166.12 87.5811 166.014 87.7784 165.823C87.9757 165.631 88.089 165.368 88.0936 165.092C88.0981 164.817 87.9934 164.551 87.8024 164.352C87.6115 164.154 87.3499 164.04 87.0751 164.035C87.0637 164.034 87.0523 164.034 87.041 164.035H38.0967Z" fill="#E6E6E6"/>
<path d="M51.688 98.755C44.2173 98.7582 37.0514 95.7857 31.7666 90.4916C26.4819 85.1974 23.5112 78.0153 23.5081 70.5251V70.5016C23.5081 70.4424 23.5081 70.3801 23.5115 70.3209C23.5974 54.8482 36.2381 42.2478 51.688 42.2478C59.1618 42.2469 66.3298 45.2228 71.6151 50.5208C76.9005 55.8187 79.8703 63.0048 79.8711 70.4981C79.872 77.9914 76.9038 85.1781 71.6197 90.4772C66.3355 95.7764 59.1682 98.7539 51.6944 98.7548H51.688V98.755ZM51.688 42.842C44.4048 42.8583 37.4223 45.7555 32.2575 50.9041C27.0928 56.0527 24.1631 63.0368 24.105 70.3387C24.1018 70.4019 24.1018 70.4536 24.1018 70.5007C24.1011 75.9718 25.7186 81.3202 28.7497 85.8696C31.7808 90.419 36.0893 93.965 41.1305 96.0594C46.1717 98.1537 51.7191 98.7022 57.0712 97.6355C62.4233 96.5688 67.3397 93.9348 71.1988 90.0667C75.0578 86.1986 77.6861 81.27 78.7514 75.9042C79.8166 70.5384 79.2709 64.9763 77.1833 59.9215C75.0957 54.8666 71.5599 50.5459 67.0231 47.5058C62.4863 44.4657 57.1523 42.8427 51.6954 42.842H51.688Z" fill="#E6E6E6"/>
<path d="M90.2574 132.917C96.585 132.917 101.715 127.774 101.715 121.43C101.715 115.086 96.585 109.943 90.2574 109.943C83.9298 109.943 78.8003 115.086 78.8003 121.43C78.8003 127.774 83.9298 132.917 90.2574 132.917Z" fill="white"/>
<path d="M86.2784 126.598C86.2587 126.598 86.2391 126.598 86.2194 126.597H80.0612C79.2798 126.585 78.5345 126.265 77.9862 125.707C77.4379 125.148 77.1304 124.396 77.1301 123.613C77.1298 122.829 77.4367 122.077 77.9846 121.518C78.5324 120.96 79.2774 120.639 80.0588 120.626H86.2222C86.2524 120.626 86.2852 120.626 86.3178 120.626C87.1039 120.637 87.8538 120.959 88.404 121.522C88.9542 122.085 89.2601 122.843 89.2549 123.632C89.2497 124.42 88.9338 125.174 88.3763 125.73C87.8187 126.285 87.0645 126.597 86.2784 126.598Z" fill="#178DC8"/>
<path d="M186 208.301H93.188V208.945H186V208.301Z" fill="#3F3D56"/>
<path d="M98.9065 153.849C98.8336 153.735 98.7731 153.614 98.7261 153.487L97.2471 149.517C97.075 149.053 97.0934 148.539 97.2983 148.089C97.5031 147.639 97.8777 147.289 98.3399 147.115L131.349 134.757C131.811 134.585 132.323 134.603 132.772 134.808C133.221 135.014 133.571 135.389 133.744 135.853L135.223 139.824C135.308 140.053 135.348 140.298 135.339 140.543C135.331 140.788 135.274 141.028 135.172 141.251C135.071 141.474 134.927 141.675 134.748 141.842C134.569 142.009 134.359 142.14 134.13 142.225L101.122 154.583C100.724 154.732 100.288 154.74 99.8853 154.606C99.4825 154.473 99.1372 154.206 98.9065 153.849Z" fill="#178DC8"/>
<path d="M131.243 133.731L117.82 139.098C117.398 139.225 117.04 139.511 116.821 139.896C116.603 140.281 116.541 140.735 116.648 141.165L118.206 147.418C118.267 147.665 118.383 147.896 118.544 148.093C118.705 148.29 118.907 148.448 119.136 148.558C119.366 148.667 119.617 148.724 119.871 148.724C120.124 148.724 120.375 148.668 120.605 148.56L134.065 142.208C134.491 142.048 134.837 141.724 135.026 141.309C135.216 140.894 135.233 140.42 135.075 139.992L133.457 134.743C133.297 134.315 132.974 133.968 132.559 133.778C132.144 133.588 131.671 133.571 131.243 133.731Z" fill="#2F2E41"/>
<path d="M155.808 172.69C155.387 172.738 154.961 172.641 154.602 172.415C154.244 172.188 153.972 171.845 153.834 171.443L142.344 138.048C142.264 137.816 142.231 137.571 142.246 137.326C142.261 137.082 142.323 136.842 142.43 136.622C142.537 136.402 142.687 136.205 142.87 136.042C143.053 135.879 143.266 135.755 143.497 135.675L147.494 134.292C147.96 134.131 148.472 134.163 148.916 134.379C149.359 134.596 149.699 134.981 149.861 135.448L161.35 168.844C161.511 169.312 161.48 169.825 161.263 170.27C161.047 170.715 160.664 171.055 160.198 171.217L156.201 172.599C156.074 172.644 155.942 172.674 155.808 172.69Z" fill="#178DC8"/>
<path d="M150.717 134.877L155.127 148.674C155.298 149.083 155.305 149.541 155.148 149.955C154.99 150.369 154.68 150.706 154.281 150.896L148.478 153.67C148.249 153.779 147.999 153.837 147.745 153.837C147.491 153.838 147.24 153.783 147.01 153.675C146.78 153.567 146.577 153.409 146.415 153.213C146.253 153.016 146.136 152.787 146.074 152.54L142.399 138.087C142.251 137.655 142.28 137.182 142.479 136.771C142.678 136.361 143.032 136.046 143.462 135.896L148.53 133.809C148.961 133.66 149.434 133.689 149.844 133.889C150.254 134.09 150.568 134.445 150.717 134.877Z" fill="#2F2E41"/>
<path d="M137.365 208.49H133.138C132.644 208.49 132.171 208.293 131.822 207.943C131.473 207.593 131.276 207.119 131.276 206.624V171.297C131.276 170.802 131.473 170.327 131.822 169.978C132.171 169.628 132.644 169.431 133.138 169.43H137.365C137.859 169.431 138.332 169.628 138.681 169.978C139.03 170.327 139.226 170.802 139.227 171.297V206.624C139.226 207.119 139.03 207.593 138.681 207.943C138.332 208.293 137.859 208.49 137.365 208.49Z" fill="#2F2E41"/>
<path d="M145.727 208.49H141.499C141.005 208.49 140.532 208.293 140.183 207.943C139.834 207.593 139.638 207.119 139.637 206.624V171.297C139.638 170.802 139.834 170.327 140.183 169.978C140.532 169.628 141.005 169.431 141.499 169.43H145.727C146.22 169.431 146.693 169.628 147.042 169.978C147.391 170.327 147.588 170.802 147.588 171.297V206.624C147.588 207.119 147.391 207.593 147.042 207.943C146.693 208.293 146.22 208.49 145.727 208.49Z" fill="#2F2E41"/>
<path d="M149.211 175.45H130.002C129.47 175.449 128.961 175.237 128.585 174.861C128.209 174.484 127.998 173.973 127.997 173.44V142.154C127.997 139.067 129.22 136.106 131.397 133.923C133.575 131.74 136.527 130.514 139.606 130.514C142.685 130.514 145.638 131.74 147.815 133.923C149.993 136.106 151.216 139.067 151.216 142.154V173.44C151.215 173.973 151.004 174.484 150.628 174.861C150.252 175.237 149.742 175.449 149.211 175.45Z" fill="#CCCCCC"/>
<path d="M152.102 183.103H142.363V127.921L142.544 127.97C145.287 128.725 147.707 130.361 149.433 132.627C151.16 134.894 152.097 137.665 152.102 140.516V183.103Z" fill="#2F2E41"/>
<path d="M136.058 183.103H126.319V140.516C126.324 137.665 127.261 134.894 128.988 132.627C130.714 130.361 133.134 128.725 135.877 127.97L136.058 127.921V183.103Z" fill="#2F2E41"/>
<path d="M139.461 124.042C147.927 124.042 154.79 117.161 154.79 108.673C154.79 100.185 147.927 93.3037 139.461 93.3037C130.995 93.3037 124.132 100.185 124.132 108.673C124.132 117.161 130.995 124.042 139.461 124.042Z" fill="#178DC8"/>
<path d="M156.792 105.135C156.792 105.135 157.651 81.2991 146.48 89.0529C146.48 89.0529 140.036 67.3711 124.282 99.822L119.699 104.417C119.699 104.417 140.322 101.545 159.513 110.447L156.792 105.135Z" fill="#2F2E41"/>
<path d="M139.695 116.285C138.748 116.258 137.569 116.225 136.661 115.56C136.391 115.354 136.169 115.091 136.011 114.79C135.852 114.489 135.762 114.157 135.745 113.816C135.728 113.575 135.768 113.332 135.86 113.109C135.953 112.885 136.096 112.685 136.278 112.526C136.752 112.124 137.444 112.03 138.191 112.25L137.417 106.585L137.985 106.507L138.894 113.167L138.42 112.949C137.87 112.696 137.116 112.568 136.647 112.965C136.532 113.069 136.443 113.198 136.385 113.342C136.328 113.486 136.305 113.641 136.317 113.796C136.331 114.049 136.399 114.297 136.517 114.521C136.635 114.745 136.799 114.942 136.999 115.096C137.706 115.614 138.645 115.681 139.711 115.711L139.695 116.285Z" fill="#2F2E41"/>
<path d="M134.611 107.074H131.525V107.648H134.611V107.074Z" fill="#2F2E41"/>
<path d="M144.349 107.074H141.264V107.648H144.349V107.074Z" fill="#2F2E41"/>
<path d="M105.283 155.314C104.869 155.506 104.397 155.526 103.969 155.369C103.541 155.212 103.192 154.891 103 154.476L93.1156 133.115C92.9238 132.7 92.9041 132.226 93.0609 131.797C93.2176 131.368 93.5379 131.019 93.9513 130.827C94.3648 130.635 94.8374 130.615 95.2654 130.772C95.6934 130.929 96.0416 131.25 96.2335 131.665L106.118 153.026C106.31 153.44 106.33 153.914 106.173 154.343C106.016 154.773 105.696 155.122 105.283 155.314Z" fill="#3F3D56"/>
<path d="M95.1267 132.329C94.8229 132.329 94.5315 132.208 94.3166 131.992C94.1017 131.777 93.981 131.485 93.981 131.18V116.548H79.6596C79.3558 116.548 79.0643 116.427 78.8495 116.211C78.6346 115.996 78.5139 115.704 78.5139 115.399C78.5139 115.094 78.6346 114.802 78.8495 114.587C79.0643 114.371 79.3558 114.25 79.6596 114.25H95.1267C95.4306 114.25 95.722 114.371 95.9369 114.587C96.1517 114.802 96.2724 115.094 96.2724 115.399V131.18C96.2724 131.485 96.1517 131.777 95.9369 131.992C95.722 132.208 95.4306 132.329 95.1267 132.329Z" fill="#178DC8"/>
<path d="M95.3976 133.953C92.931 135.1 90.1803 135.488 87.4936 135.068C84.8068 134.648 82.3046 133.439 80.3034 131.593C78.3021 129.748 76.8917 127.348 76.2505 124.699C75.6093 122.05 75.7661 119.269 76.701 116.709C77.636 114.149 79.3071 111.924 81.5031 110.316C83.6991 108.709 86.3213 107.79 89.0382 107.676C91.755 107.562 94.4445 108.259 96.7664 109.678C99.0884 111.097 100.939 113.174 102.083 115.647C103.613 118.964 103.769 122.754 102.516 126.186C101.262 129.618 98.7024 132.411 95.3976 133.953ZM85.2716 112.07C83.4216 112.931 81.8677 114.322 80.8063 116.068C79.745 117.814 79.2239 119.837 79.3089 121.879C79.3939 123.922 80.0812 125.894 81.284 127.546C82.4867 129.197 84.1509 130.453 86.0659 131.156C87.981 131.86 90.061 131.977 92.0428 131.495C94.0247 131.013 95.8195 129.953 97.2002 128.448C98.5809 126.943 99.4855 125.061 99.7997 123.041C100.114 121.021 99.8234 118.952 98.965 117.097C97.8117 114.612 95.7222 112.687 93.1551 111.745C90.588 110.803 87.7528 110.92 85.2716 112.07Z" fill="#3F3D56"/>
</g>
<defs>
<clipPath id="clip0_42_34">
<rect width="186" height="209" fill="white"/>
</clipPath>
</defs>
</svg>
